<!-- <?xml version="1.0" encoding="utf-8"?> -->
<!-- Generator: Adobe Illustrator 15.0.0, SVG Export Plug-In  -->
<!-- <!DOCTYPE svg PUBLIC "-//W3C//DTD SVG 1.1//EN" "http://www.w3.org/Graphics/SVG/1.1/DTD/svg11.dtd" [
	<!ENTITY ns_flows "http://ns.adobe.com/Flows/1.0/">
]> -->
<svg version="1.1"
	 xmlns="http://www.w3.org/2000/svg" xmlns:xlink="http://www.w3.org/1999/xlink" xmlns:a="http://ns.adobe.com/AdobeSVGViewerExtensions/3.0/"
	 x="0px" y="0px" width="207px" height="230px" viewBox="0 0 207 230" enable-background="new 0 0 207 230" xml:space="preserve">
<defs>
</defs>
<path d="M38.393,106.674l0.661-0.141c1.898-0.402,3.818-0.038,5.759,1.091c0.006,0.032,0.06,0.041,0.163,0.02
	c0.096-0.802,0.458-1.472,1.087-2.013c0.735-0.546,1.315-0.864,1.738-0.955c0.145,0.023,0.221,0.042,0.225,0.062l0.005,0.023
	c-0.291,0.54-0.332,1.319-0.116,2.336l0.033,0.153c0.256,1.203,0.72,2.391,1.393,3.557c0.206,0.382,0.355,0.802,0.454,1.261
	l0.07,0.332c0.313,1.473,0.058,2.898-0.766,4.276c-0.604,0.822-1.349,1.327-2.229,1.514c-0.409-0.005-0.635-0.108-0.678-0.31
	l-0.032-0.152c-0.041-0.19,0.106-0.963,0.437-2.326c0.152-0.867,0.159-1.629,0.019-2.29c-0.241-1.134-0.958-2.169-2.147-3.103
	c-1.22-0.575-2.729-0.671-4.526-0.289c-1.899,0.402-3.146,1.119-3.74,2.149c-0.297,0.611-0.439,1.229-0.435,1.848
	c-0.126,0.148,0.116,1.666,0.728,4.547l0.042,0.202c0.872,4.104,2.285,6.381,4.241,6.833l0.137,0.022l0.012,0.054
	c-0.371,0.094-0.753,0.378-1.147,0.855c-0.832,1.167-0.877,3.508-0.133,7.016c0.698,3.198,1.089,4.79,1.174,4.771
	c0.447,1.02,0.987,1.73,1.622,2.127c0.799,0.522,1.922,0.629,3.363,0.322c3.321-0.705,4.6-2.861,3.833-6.472
	c-0.09-0.425-0.299-1.363-0.625-2.816c-0.1-0.639-0.047-0.974,0.155-1.017l0.027-0.006c1.966,0.166,3.318,0.66,4.06,1.476
	c0.561,0.557,0.937,1.28,1.127,2.178c0.062,0.289,0.185,1.289,0.372,3.005l0.033,0.15c0.287,1.356,1.137,2.442,2.551,3.26
	l0.011,0.052l-0.025,0.004c-0.605,0.234-1.121,0.398-1.543,0.486c-1.087,0.231-2.394,0.04-3.923-0.575
	c-1.319,1.876-2.963,3.022-4.93,3.44l-0.661,0.142c-2.271,0.481-4.503,0.272-6.696-0.628c-0.505-0.212-1.279-0.65-2.325-1.313
	c-1.885-1.46-3.37-3.191-4.45-5.195c-0.393-0.677-0.771-1.463-1.139-2.36c-0.477-1.49-0.892-2.565-1.242-3.217
	c-0.678-1.187-1.483-1.937-2.417-2.25c-0.768-0.191-1.253-0.264-1.456-0.22l-0.006-0.03l1.143-1.249
	c0.498-0.658,0.851-1.21,1.056-1.661c0.328-0.709,0.468-1.545,0.424-2.507c-0.26-1.805-0.342-2.902-0.25-3.297
	c0.035-1.511,0.256-3.01,0.667-4.498c0.277-1.031,0.704-2.07,1.28-3.112c0.724-1.181,1.299-1.971,1.73-2.361
	C34.188,108.224,36.121,107.157,38.393,106.674z"/>
<path d="M78.046,98.205l0.304-0.065c1.17-0.248,2.388-0.064,3.651,0.553c0.609,0.365,1.033,0.69,1.271,0.979l0.053,0.252
	l-0.013,0.059c-2.087,0.442-3.322,1.004-3.708,1.69c-0.299,0.681-0.343,1.51-0.138,2.474c1.039,4.897,1.852,7.687,2.438,8.354
	c0.26,0.478,0.675,0.921,1.239,1.332c0.663,0.377,1.377,0.557,2.139,0.56l0.01,0.048c-1.124,0.631-1.817,1.372-2.078,2.226
	c-0.486,0.968-0.333,3.312,0.455,7.022c0.177,0.831,0.505,2.458,0.985,4.893c0.281,1.321,0.836,2.142,1.666,2.462
	c0.757,0.229,1.94,0.174,3.552-0.169l0.036,0.048l0.032,0.149c0.115,0.542-0.217,1.233-0.995,2.071
	c-0.797,0.667-1.655,1.093-2.57,1.287l-0.331,0.071c-1.135,0.241-2.271,0.101-3.409-0.415c-0.523-0.297-0.813-0.495-0.869-0.588
	l-0.024,0.006c-0.626,1.316-1.582,2.117-2.867,2.39c-1.339,0.284-2.563-0.017-3.672-0.896c-0.303-0.344-0.469-0.584-0.497-0.717
	l-0.027-0.126c-0.011-0.052,0.286-0.193,0.891-0.43c0.604-0.322,1.013-0.613,1.224-0.872c0.419-0.531,0.498-1.417,0.236-2.653
	l-2.424-11.416l-0.026,0.006c-1.23,0.548-2.481,0.952-3.753,1.222c-1.222,0.261-2.547,0.401-3.977,0.419l2.284,10.758
	c0.377,1.776,0.853,2.766,1.425,2.963c0.364,0.209,0.971,0.317,1.825,0.33c0.401-0.034,0.607-0.023,0.617,0.031l0.028,0.126
	c0.193,0.915-0.233,1.782-1.279,2.608c-0.504,0.302-0.959,0.494-1.366,0.579c-1.323,0.281-2.688-0.063-4.101-1.039
	c-0.239,0.793-0.895,1.501-1.968,2.118c-0.511,0.268-0.986,0.449-1.427,0.543l-0.38,0.079c-1.341,0.286-2.594,0.141-3.758-0.424
	c-0.577-0.39-0.907-0.764-0.983-1.123l-0.048-0.226c-0.007-0.032,0.016-0.056,0.067-0.067c2.254-0.478,3.53-1.136,3.829-1.982
	c0.193-0.682,0.212-1.381,0.057-2.112c-1.241-5.847-1.98-8.99-2.215-9.438c-0.065-0.308-0.344-0.861-0.83-1.656
	c-0.51-0.725-1.192-1.186-2.048-1.378c-0.547-0.074-0.841-0.129-0.882-0.155l-0.005-0.023c0.629-0.454,1.224-1.069,1.787-1.844
	c0.414-0.723,0.601-1.428,0.561-2.111c-0.058-0.694-0.158-1.366-0.294-2.008c-0.573-2.447-0.974-4.223-1.209-5.323l-0.07-0.331
	c-0.354-1.664-0.902-2.575-1.644-2.734c-0.79-0.205-2.004-0.133-3.647,0.216l-0.039-0.045l-0.009-0.05
	c-0.123-0.576,0.24-1.292,1.087-2.143c0.875-0.717,1.795-1.18,2.761-1.385l0.103-0.021c0.034-0.009,0.056-0.023,0.07-0.043
	c0.038,0.009,0.073,0.013,0.106,0.005l0.051-0.011c1.544-0.327,2.897,0.003,4.065,0.995c0.592-1.294,1.567-2.086,2.925-2.374
	c1.337-0.284,2.533,0.012,3.588,0.887c0.307,0.359,0.476,0.615,0.509,0.771l0.026,0.123c0.011,0.051-0.214,0.161-0.674,0.33
	c-0.886,0.418-1.429,0.864-1.629,1.331c-0.223,0.542-0.195,1.465,0.083,2.772l1.847,8.695c0.01,0.05,0.655,0.047,1.937-0.015
	c0.83-0.089,1.535-0.19,2.112-0.313c1.339-0.285,2.576-0.718,3.711-1.298l-1.959-9.226c-0.316-1.493-0.909-2.313-1.774-2.467
	c-0.865-0.151-1.5-0.186-1.908-0.101l-0.066-0.066l-0.026-0.123c0.071-0.497,0.481-1.157,1.224-1.992
	c0.663-0.636,1.383-1.036,2.163-1.201c1.169-0.247,2.285,0.082,3.346,0.989C75.457,99.402,76.537,98.524,78.046,98.205z"/>
<path d="M87.308,96.158l0.483-0.102c1.171-0.249,2.332-0.082,3.484,0.507c0.369,0.242,0.563,0.395,0.577,0.463l0.025-0.006
	c0.569-1.312,1.654-2.133,3.25-2.473c1.523-0.322,2.864,0.069,4.018,1.17c0.174,0.137,0.307,0.308,0.398,0.499l0.016,0.076
	c0.007,0.032,0.004,0.055-0.012,0.058l-0.101,0.021c-1.815,0.387-2.796,1.063-2.944,2.03c-0.135,0.545-0.124,1.183,0.031,1.911
	c0.291,1.371,0.654,3.117,1.088,5.24c0.627,2.95,1.258,4.681,1.902,5.204c0.171,0.139,0.367,0.274,0.59,0.406l0.005,0.024
	c-0.406,0.67-0.591,1.345-0.551,2.025c-0.031,0.863,0.147,2.199,0.532,4.01c0.105,0.492,0.527,2.454,1.276,5.896
	c0.334,1.576,1.076,2.676,2.218,3.298c0.872,0.453,1.98,0.537,3.321,0.255c2.895-0.616,4.01-2.518,3.332-5.704
	c-0.136-0.645-0.558-2.66-1.261-6.058c-0.6-2.828-1.213-4.474-1.841-4.922l-0.37-0.239c0.313-0.367,0.477-0.892,0.491-1.567
	c0.046-0.7-0.109-1.89-0.466-3.569c-0.155-0.729-0.603-2.8-1.348-6.222c-0.287-1.355-0.843-2.178-1.667-2.464
	c-0.621-0.183-1.467-0.162-2.537,0.063l-0.075,0.017c-0.036,0.007-0.056-0.009-0.063-0.043l-0.021-0.103
	c0.116-0.875,0.542-1.656,1.284-2.344c0.527-0.429,1.072-0.704,1.63-0.823l0.074-0.016c1.122-0.239,2.232,0.11,3.332,1.045
	c0.635-1.18,1.545-1.896,2.732-2.15l0.076-0.014c1.22-0.26,2.313,0.002,3.276,0.791c0.276,0.298,0.437,0.544,0.48,0.752l0.025,0.125
	c0.007,0.033-0.007,0.057-0.038,0.063l-0.104,0.021c-1.488,0.316-2.385,0.858-2.681,1.629c-0.211,0.596-0.224,1.332-0.036,2.213
	l1.031,4.858c0.566,2.663,1.17,4.347,1.819,5.063c0.221,0.286,0.571,0.594,1.045,0.92c-0.499,0.476-0.795,1.046-0.889,1.7
	c-0.091,0.73,0.005,1.761,0.288,3.102l0.482,2.264c0.144,0.676,0.33,1.525,0.563,2.536c0.855,4.034,0.286,7.221-1.718,9.559
	c-1.552,1.605-3.841,2.728-6.857,3.367l-0.636,0.135c-4.936,1.032-8.42,0.179-10.454-2.561c-1.149-1.403-1.979-3.311-2.489-5.713
	l-0.913-4.3c-0.529-2.491-1.086-3.948-1.672-4.374c-0.299-0.238-0.572-0.356-0.82-0.358l-0.011-0.051
	c0.404-0.352,0.642-0.898,0.715-1.64c0.121-0.771-0.101-2.474-0.663-5.121l-0.87-4.092c-0.388-1.83-0.97-2.821-1.746-2.976
	c-0.684-0.212-1.693-0.17-3.032,0.112l-0.103,0.021c-0.034,0.008-0.056-0.01-0.063-0.041l-0.026-0.126
	c0.128-0.896,0.604-1.708,1.424-2.431C86.197,96.553,86.783,96.269,87.308,96.158z"/>
<path d="M129.922,87.24l0.66-0.14c1.899-0.402,3.819-0.039,5.759,1.091c0.006,0.031,0.063,0.042,0.165,0.02
	c0.097-0.802,0.457-1.473,1.087-2.014c0.734-0.545,1.313-0.864,1.736-0.953c0.146,0.021,0.222,0.04,0.226,0.061l0.005,0.023
	c-0.293,0.541-0.329,1.319-0.112,2.335l0.031,0.153c0.255,1.204,0.719,2.391,1.391,3.558c0.207,0.382,0.357,0.802,0.455,1.262
	l0.068,0.331c0.315,1.472,0.06,2.898-0.765,4.276c-0.604,0.823-1.347,1.325-2.229,1.513c-0.408-0.004-0.634-0.107-0.677-0.308
	l-0.032-0.153c-0.039-0.191,0.105-0.964,0.437-2.327c0.152-0.866,0.159-1.627,0.019-2.288c-0.24-1.135-0.956-2.17-2.146-3.104
	c-1.221-0.575-2.729-0.67-4.525-0.289c-1.9,0.403-3.146,1.119-3.743,2.152c-0.294,0.608-0.438,1.228-0.432,1.844
	c-0.126,0.151,0.117,1.667,0.729,4.55l0.043,0.2c0.87,4.105,2.283,6.381,4.24,6.834l0.139,0.022l0.012,0.053
	c-0.372,0.095-0.756,0.378-1.149,0.857c-0.831,1.166-0.876,3.507-0.131,7.014c0.697,3.199,1.086,4.79,1.172,4.771
	c0.448,1.021,0.988,1.729,1.622,2.127c0.801,0.521,1.924,0.629,3.361,0.323c3.323-0.706,4.601-2.862,3.835-6.472
	c-0.092-0.426-0.299-1.365-0.625-2.818c-0.1-0.639-0.047-0.973,0.156-1.016l0.027-0.007c1.963,0.168,3.316,0.661,4.058,1.477
	c0.561,0.558,0.938,1.28,1.128,2.178c0.063,0.289,0.186,1.289,0.373,3.005l0.031,0.15c0.289,1.355,1.137,2.441,2.552,3.259
	l0.011,0.051l-0.025,0.007c-0.606,0.235-1.121,0.396-1.545,0.487c-1.084,0.229-2.393,0.039-3.921-0.577
	c-1.319,1.876-2.964,3.022-4.93,3.439l-0.663,0.141c-2.269,0.481-4.501,0.273-6.693-0.625c-0.507-0.213-1.283-0.651-2.326-1.314
	c-1.885-1.46-3.369-3.19-4.449-5.194c-0.394-0.677-0.771-1.463-1.142-2.36c-0.475-1.49-0.89-2.565-1.24-3.216
	c-0.676-1.188-1.483-1.937-2.417-2.25c-0.765-0.193-1.251-0.265-1.455-0.223l-0.006-0.028l1.142-1.249
	c0.499-0.658,0.852-1.21,1.056-1.66c0.329-0.71,0.471-1.546,0.424-2.509c-0.257-1.804-0.341-2.901-0.246-3.297
	c0.033-1.51,0.255-3.009,0.666-4.497c0.276-1.03,0.702-2.071,1.278-3.113c0.724-1.181,1.301-1.97,1.729-2.36
	C125.717,88.789,127.652,87.722,129.922,87.24z"/>
<path d="M146.413,83.689l0.433-0.093c1.561-0.331,2.899,0.012,4.022,1.032c0.68-1.369,1.82-2.221,3.412-2.56l0.103-0.021
	c1.49-0.316,2.797-0.082,3.926,0.707c0.389,0.346,0.604,0.598,0.639,0.768l0.059,0.282c0.008,0.034-0.003,0.052-0.039,0.06
	c-2.019,0.428-3.141,1.057-3.374,1.888c-0.221,0.451-0.167,1.461,0.163,3.02l2.046,9.635l0.025-0.005l5.801-12.736
	c0.157-0.582,0.196-1.085,0.105-1.509l-0.007-0.027c-0.147-0.694-0.706-0.988-1.676-0.889c-0.325,0.068-0.491,0.072-0.501,0.025
	l-0.049-0.23c-0.079-0.374,0.193-1,0.824-1.875c0.602-0.66,1.229-1.06,1.869-1.196l0.104-0.021c0.88-0.186,1.78,0.091,2.701,0.836
	l0.026-0.007c0.484-1.042,1.221-1.666,2.204-1.877c1.066-0.225,2.036,0.109,2.896,1.007c0.289,0.344,0.458,0.648,0.513,0.903
	l0.021,0.101c0.007,0.034-0.009,0.053-0.042,0.061c-1.728,0.366-2.922,1.26-3.576,2.672c-0.193,0.343-1.535,3.402-4.033,9.176
	c-0.034,0.007-0.207,0.396-0.519,1.174c0.481,0.781,1.015,1.366,1.595,1.76c0.729,0.428,1.745,0.673,3.054,0.733l0.005,0.026
	c-0.458,0.768-0.613,1.499-0.466,2.197l0.042,0.201c0.238,1.119,1.519,3.221,3.841,6.309c2.214,3.09,3.546,4.887,3.985,5.396
	c0.596,0.636,1.133,0.99,1.608,1.064c0.583,0.071,1.239,0.032,1.97-0.122l0.028,0.021l0.063,0.306
	c0.057,0.27-0.098,0.689-0.473,1.267c-0.781,0.998-1.754,1.622-2.923,1.87c-1.102,0.233-2.099,0.011-2.987-0.665
	c-0.408,0.562-0.949,1.021-1.621,1.379c-0.886,0.505-1.665,0.827-2.341,0.972c0.05-0.344,0.045-0.655-0.013-0.926l-0.043-0.2
	c-0.479-2.257-3.026-6.258-7.65-12.006c-1.159-1.371-1.777-2.081-1.859-2.129l-1.257,2.841l1.511,7.119
	c0.342,1.61,0.722,2.565,1.139,2.866c0.572,0.676,1.848,0.807,3.827,0.387l0.032,0.018l0.028,0.127
	c-0.024,0.731-0.206,1.326-0.549,1.792c-0.624,0.909-1.475,1.479-2.56,1.711l-0.356,0.076c-1.1,0.231-2.259,0.045-3.467-0.568
	c-0.245-0.14-0.546-0.352-0.908-0.631c-0.644,1.558-1.924,2.536-3.838,2.941c-1.491,0.317-2.766,0.109-3.824-0.62
	c-0.474-0.396-0.749-0.766-0.821-1.104l-0.055-0.253c-0.002-0.018,0.024-0.031,0.072-0.04c2.104-0.448,3.345-1.032,3.724-1.75
	c0.353-0.501,0.345-1.621-0.026-3.369c-0.176-0.991-0.373-2.011-0.596-3.06c-1.019-4.798-2.237-7.614-3.656-8.448
	c-0.485-0.283-0.839-0.41-1.062-0.382l-0.012-0.052c0.713-0.401,1.169-0.916,1.374-1.542c0.199-0.481,0.297-1.105,0.294-1.867
	c0.059-0.883-0.199-2.695-0.783-5.441l-0.566-2.67c-0.302-1.423-0.873-2.244-1.716-2.452c-0.817-0.164-2.002-0.08-3.562,0.25
	l-0.038-0.041l-0.016-0.075c-0.107-0.51,0.184-1.148,0.869-1.918C144.413,84.438,145.379,83.908,146.413,83.689z"/>
<path d="M42.724,151.858l0.455-0.099c0.048,0.006,0.08,0.045,0.096,0.122l0.025,0.114c0.212,1.003,0.688,2.084,1.427,3.245
	c2.241,3.97,4.382,7.292,6.426,9.971c1.686,2.181,3.045,4.059,4.078,5.634l0.005,0.022l0.022-0.005l-3.26-15.356
	c-0.291-1.366-0.753-2.167-1.39-2.394c-0.682-0.222-1.805-0.165-3.368,0.168l-0.034-0.044l-0.078-0.363
	c0.263-0.786,0.917-1.48,1.963-2.085c0.522-0.235,0.972-0.396,1.352-0.476c1.246-0.264,2.336-0.021,3.276,0.734
	c0.589-1.031,1.546-1.687,2.867-1.967c1.215-0.259,2.287-0.106,3.216,0.46c0.391,0.266,0.62,0.485,0.688,0.662l0.024,0.114
	c-0.026,0.101-0.069,0.159-0.129,0.172c-1.793,0.382-2.849,0.863-3.168,1.457c-0.233,0.541-0.299,1.056-0.195,1.542
	c-0.021,0.132,0.106,0.843,0.381,2.133l0.315,1.482c0.631,3.198,1.19,5.081,1.675,5.644c0.183,0.341,0.555,0.677,1.117,0.999
	c0.346,0.215,0.909,0.396,1.687,0.548l0.344,0.047l0.005,0.024c0.003,0.015-0.237,0.191-0.721,0.531
	c-0.745,0.684-1.181,1.576-1.311,2.685c-0.199,0.933,0.05,2.926,0.747,5.984c0.168,0.869,0.378,1.896,0.629,3.08
	c0.429,2.021,0.886,3.613,1.372,4.78c-0.03,0.006-0.052,0.012-0.068,0.015c-1.473,0.312-2.635,0.228-3.484-0.261
	c-0.303-0.157-0.676-0.379-1.118-0.668c-0.699,1.42-2.02,2.334-3.965,2.747l-0.028-0.018l-0.291-1.367
	c-0.39-1.837-0.958-3.248-1.707-4.233c-1.422-2.062-4.461-6.386-9.112-12.971l-0.247-0.374l-0.024,0.005l3.116,14.671
	c0.342,1.61,0.782,2.523,1.321,2.742c0.588,0.304,1.673,0.291,3.252-0.045l0.159-0.034c0.031-0.006,0.048,0.005,0.055,0.036
	l0.087,0.409c-0.081,0.81-0.448,1.516-1.098,2.114c-0.429,0.296-0.856,0.491-1.282,0.582l-0.296,0.063
	c-0.683,0.146-1.466,0.121-2.349-0.072c-0.51-0.162-1.023-0.482-1.537-0.959l-0.023,0.004c-0.292,0.794-0.846,1.435-1.662,1.923
	c-0.282,0.094-0.568,0.169-0.857,0.232c-1.169,0.246-2.407,0.065-3.711-0.546c-0.276-0.18-0.42-0.301-0.433-0.361l-0.12-0.568
	c-0.007-0.03,0.004-0.049,0.035-0.055l0.137-0.028c1.868-0.397,2.958-0.948,3.269-1.649c0.26-0.642,0.291-1.434,0.091-2.375
	c-0.472-2.297-0.804-3.902-0.998-4.813c-0.59-2.779-1.553-4.473-2.888-5.078c-0.372-0.252-0.924-0.392-1.658-0.408
	c-0.03,0.006-0.049-0.006-0.055-0.036c0.835-0.4,1.458-0.905,1.869-1.517c0.339-0.499,0.516-1.157,0.533-1.973
	c0.005-0.649-0.211-1.999-0.646-4.051l-0.256-1.207c-0.045-0.215-0.084-0.363-0.119-0.452c-0.014-0.14-0.042-0.31-0.084-0.505
	l-0.285-1.346c-0.313-1.472-0.879-2.273-1.7-2.4c-0.753-0.109-1.686-0.048-2.794,0.188l-0.25,0.053
	c-0.015,0.004-0.042-0.014-0.083-0.053l-0.043-0.204c0.142-0.683,0.607-1.367,1.396-2.058c0.591-0.43,1.176-0.704,1.753-0.826
	l0.091-0.02c1.17-0.248,2.276,0.065,3.32,0.938c0.288-0.806,0.827-1.445,1.616-1.913C40.86,152.347,41.735,152.067,42.724,151.858z"
	/>
<path d="M73.327,144.716l0.729-0.155c1.473-0.313,3.042-0.217,4.703,0.285c0.667,0.225,1.428,0.597,2.285,1.113
	c1.216,0.871,2.106,1.655,2.668,2.361c0.627,0.709,1.322,1.704,2.086,2.985c0.405,0.709,0.993,2.059,1.767,4.055
	c0.367,0.763,0.721,1.346,1.061,1.75c0.496,0.53,1.097,0.862,1.808,0.997l0.009,0.047c-0.366,0.22-0.654,0.543-0.865,0.97
	c-0.321,0.51-0.497,1.327-0.53,2.445c-0.012,0.685,0.076,2.072,0.265,4.157c-0.032,1.42-0.147,2.635-0.345,3.647
	c-0.284,1.646-0.884,3.233-1.798,4.761c-0.779,1.117-1.482,1.919-2.11,2.4c-1.21,0.954-2.483,1.574-3.82,1.857l-0.729,0.154
	c-1.473,0.314-3.015,0.23-4.626-0.255c-0.648-0.211-1.383-0.57-2.206-1.077c-1.077-0.74-1.757-1.287-2.038-1.639
	c-0.958-0.924-1.863-2.121-2.715-3.593c-0.466-0.773-1.101-2.193-1.905-4.262c-0.558-1.213-1.09-2.142-1.591-2.782
	c-0.331-0.438-0.809-0.859-1.436-1.264c-0.014,0.002-0.148-0.065-0.399-0.202c1.055-1.16,1.642-2.325,1.758-3.493
	c0.036-0.499,0.026-1.521-0.032-3.065c0.099-1.702,0.292-3.108,0.581-4.217c0.237-0.908,0.598-1.89,1.088-2.947
	c0.714-1.198,1.271-1.977,1.672-2.331c0.502-0.552,0.996-0.989,1.482-1.313C71.234,145.398,72.293,144.934,73.327,144.716z
	 M72.298,156.579c0.532,2.506,1.366,3.932,2.503,4.276c0.138,0.051,0.208,0.083,0.211,0.099c-0.408,0.627-0.645,1.184-0.717,1.677
	c-0.232,1.145-0.128,2.756,0.314,4.837c0.803,3.561,1.251,5.33,1.341,5.311c0.059,0.274,0.306,0.769,0.745,1.485
	c0.714,0.975,1.884,1.29,3.51,0.946c1.64-0.35,2.574-1.15,2.798-2.405c0.189-0.833,0.032-2.434-0.472-4.805
	c-0.219-1.111-0.394-1.964-0.519-2.556c-0.654-3.082-1.501-4.864-2.539-5.342l-0.202-0.053l-0.004-0.023
	c0.805-1.44,1.035-2.972,0.69-4.599l-0.067-0.32c-0.653-2.701-1.063-4.257-1.229-4.664c-0.122-0.501-0.441-1.107-0.959-1.823
	c-0.739-0.795-1.847-1.036-3.319-0.724c-1.687,0.358-2.626,1.168-2.818,2.433c-0.229,0.715-0.029,2.556,0.6,5.514
	C72.189,156.031,72.234,156.275,72.298,156.579z"/>
<path d="M101.646,138.918l0.57-0.122c3.539-0.752,6.394-0.237,8.565,1.54c0.686,0.537,1.341,1.461,1.968,2.771
	c0.495,0.833,1.037,1.37,1.629,1.607c0.184,0.041,0.281,0.059,0.296,0.056l0.006,0.022c-0.54,0.449-0.913,1.226-1.124,2.333
	c-0.226,1.334-0.41,2.248-0.561,2.741c-0.619,1.272-1.647,2.333-3.088,3.179l0.005,0.023c0.885-0.015,1.652,0.037,2.294,0.154
	c0.724,0.116,1.452,0.407,2.186,0.869c0.858,0.596,1.418,1.518,1.683,2.764l1.494,7.039c0.327,1.536,0.827,2.443,1.508,2.727
	c0.527,0.24,1.352,0.238,2.477,0l0.033,0.042l0.065,0.317c-0.196,0.565-0.559,1.104-1.085,1.611
	c-0.601,0.54-1.264,0.889-1.992,1.043c-1.078,0.228-2.158-0.066-3.237-0.887c-0.397,0.896-1.065,1.602-2.004,2.119
	c-0.457,0.237-0.859,0.396-1.209,0.471l-0.032-0.041l-2.578-12.144c-0.364-1.718-0.873-2.649-1.522-2.797
	c-0.412-0.292-1.841-0.182-4.285,0.339l-1.8,0.381l2.178,10.253c0.261,1.232,0.756,1.957,1.486,2.185
	c0.721,0.18,1.826,0.111,3.313-0.203l0.033,0.042l0.048,0.226c-0.134,0.792-0.555,1.5-1.263,2.127
	c-0.682,0.526-1.41,0.87-2.186,1.034c-1.518,0.323-2.901-0.02-4.146-1.025c-0.532,1.383-1.511,2.227-2.938,2.531
	c-1.398,0.296-2.803-0.041-4.216-1.014c-0.282-0.207-0.43-0.343-0.442-0.404l-0.053-0.249l0.014-0.05
	c1.896-0.404,3.025-0.92,3.383-1.553c0.3-0.462,0.309-1.351,0.028-2.673c0.016-0.004-0.368-1.883-1.149-5.637
	c-0.006-0.029-0.017-0.117-0.03-0.257c-0.028-0.057-0.059-0.16-0.091-0.313l-0.024-0.114c-0.571-2.69-1.257-4.244-2.061-4.658
	c-0.386-0.251-0.763-0.379-1.128-0.38l-0.01-0.047c0.654-0.359,1.078-0.83,1.272-1.412c0.221-0.682,0.167-1.789-0.159-3.324
	l-0.02-0.091c-0.029-0.136-0.035-0.205-0.02-0.21c-0.007-0.028-0.03-0.104-0.071-0.224c-0.836-3.933-1.315-5.887-1.436-5.861
	c-0.145-0.381-0.444-0.706-0.897-0.975c-0.672-0.257-1.821-0.208-3.446,0.136l-0.033-0.041l-0.059-0.273
	c0.04-0.484,0.277-0.945,0.706-1.39c0.75-0.729,1.68-1.213,2.788-1.447c1.458-0.311,2.765-0.063,3.92,0.738
	c0.337-0.578,0.74-1.038,1.208-1.374C97.771,140.114,99.519,139.37,101.646,138.918z M99.497,145.73l1.704,8.021l1.911-0.406
	c2.479-0.526,3.797-1.457,3.958-2.793c0.164-0.718,0.155-1.501-0.024-2.351l-0.678-3.189c-0.384-1.808-1.208-2.848-2.472-3.12
	c-0.55-0.122-1.21-0.1-1.985,0.065c-1.368,0.29-2.177,0.818-2.425,1.585C99.302,144.106,99.306,144.834,99.497,145.73z"/>
<path d="M129.601,132.983l0.57-0.121c3.539-0.752,6.394-0.239,8.565,1.538c0.685,0.538,1.342,1.461,1.967,2.772
	c0.496,0.831,1.038,1.368,1.629,1.605c0.184,0.043,0.282,0.06,0.297,0.058l0.006,0.021c-0.54,0.45-0.917,1.227-1.124,2.335
	c-0.227,1.333-0.413,2.247-0.561,2.738c-0.62,1.274-1.647,2.336-3.089,3.18l0.005,0.024c0.887-0.015,1.651,0.036,2.297,0.153
	c0.722,0.115,1.45,0.408,2.184,0.87c0.857,0.595,1.417,1.518,1.682,2.764l1.494,7.038c0.325,1.537,0.829,2.443,1.509,2.729
	c0.526,0.238,1.352,0.235,2.476-0.001l0.031,0.04l0.068,0.318c-0.197,0.565-0.559,1.104-1.086,1.612
	c-0.601,0.537-1.264,0.887-1.993,1.042c-1.078,0.228-2.157-0.067-3.235-0.887c-0.398,0.896-1.064,1.601-2.004,2.118
	c-0.457,0.239-0.858,0.396-1.21,0.472l-0.032-0.041l-2.577-12.144c-0.365-1.717-0.873-2.649-1.523-2.797
	c-0.41-0.293-1.839-0.181-4.284,0.338l-1.802,0.383l2.178,10.253c0.261,1.232,0.756,1.957,1.489,2.183
	c0.718,0.181,1.823,0.113,3.314-0.202l0.033,0.042l0.047,0.226c-0.135,0.791-0.558,1.501-1.264,2.127
	c-0.684,0.525-1.41,0.869-2.185,1.035c-1.521,0.321-2.901-0.021-4.149-1.025c-0.529,1.383-1.51,2.227-2.937,2.53
	c-1.399,0.297-2.803-0.043-4.216-1.013c-0.283-0.208-0.429-0.342-0.442-0.405l-0.053-0.249l0.014-0.052
	c1.899-0.402,3.023-0.917,3.382-1.55c0.3-0.462,0.311-1.351,0.03-2.674c0.015-0.005-0.368-1.883-1.149-5.638
	c-0.007-0.029-0.017-0.115-0.032-0.255c-0.027-0.057-0.057-0.163-0.089-0.314l-0.024-0.113c-0.571-2.689-1.256-4.242-2.06-4.658
	c-0.387-0.253-0.765-0.378-1.128-0.38l-0.01-0.047c0.652-0.359,1.077-0.83,1.27-1.412c0.221-0.682,0.169-1.788-0.157-3.323
	l-0.021-0.092c-0.029-0.136-0.036-0.205-0.021-0.209c-0.006-0.03-0.029-0.105-0.07-0.224c-0.835-3.934-1.313-5.889-1.437-5.862
	c-0.143-0.381-0.443-0.706-0.897-0.975c-0.673-0.256-1.821-0.209-3.445,0.137l-0.032-0.041l-0.059-0.275
	c0.038-0.483,0.275-0.946,0.704-1.388c0.75-0.73,1.681-1.213,2.789-1.448c1.458-0.311,2.765-0.063,3.917,0.74
	c0.338-0.58,0.742-1.039,1.209-1.375C125.729,134.176,127.474,133.434,129.601,132.983z M127.452,139.795l1.703,8.021l1.914-0.405
	c2.477-0.526,3.794-1.457,3.955-2.795c0.165-0.717,0.157-1.501-0.024-2.351l-0.677-3.188c-0.383-1.808-1.207-2.848-2.47-3.122
	c-0.552-0.12-1.213-0.098-1.987,0.067c-1.366,0.289-2.176,0.817-2.426,1.587C127.257,138.17,127.261,138.899,127.452,139.795z"/>
<path d="M147.221,129.741l0.321-0.067c1.383-0.294,2.573,0.008,3.574,0.908c0.441-0.76,0.898-1.262,1.371-1.507
	c0.606-0.429,1.297-0.728,2.07-0.893l0.14-0.029c1.563-0.332,2.836-0.061,3.813,0.81c0.252,0.281,0.388,0.482,0.413,0.604
	l0.039,0.182c0.007,0.031,0.002,0.049-0.014,0.052l-0.25,0.054c-1.854,0.394-2.935,0.908-3.243,1.544
	c-0.266,0.47-0.25,1.396,0.042,2.778c0.217,1.019,0.5,2.434,0.853,4.246c0.458,2.158,1.008,3.462,1.641,3.914
	c0.491,0.371,0.996,0.573,1.512,0.608l0.006,0.022l-0.648,0.542c-0.41,0.452-0.632,1.136-0.662,2.046
	c-0.038,0.864,0.134,2.201,0.519,4.009c0.483,2.136,0.877,3.901,1.175,5.298c0.339,1.597,0.799,2.497,1.381,2.707
	c0.608,0.316,1.709,0.307,3.306-0.032l0.228-0.05c0.014-0.002,0.034,0.016,0.059,0.059l0.059,0.273
	c0.018,0.392-0.132,0.836-0.455,1.332c-0.692,0.847-1.648,1.4-2.861,1.658c-1.46,0.309-2.78,0.082-3.956-0.687
	c-0.204-0.131-0.307-0.212-0.313-0.24l-0.023,0.005c-0.22,0.76-0.831,1.431-1.834,2.007c-0.454,0.257-0.895,0.43-1.32,0.521
	l-0.434,0.091c-1.29,0.273-2.439,0.065-3.442-0.626c-0.34-0.34-0.539-0.634-0.59-0.877l-0.048-0.226
	c-0.006-0.031,0.012-0.058,0.053-0.082l0.272-0.058c1.84-0.39,2.887-0.947,3.146-1.67c0.204-0.613,0.247-1.202,0.126-1.766
	c-0.331-1.628-0.598-2.928-0.803-3.898l-0.358-1.688c-0.658-3.098-1.33-4.955-2.015-5.571c-0.321-0.376-0.825-0.617-1.515-0.727
	l-0.01-0.046c0.593-0.35,0.983-0.795,1.168-1.343c0.325-0.784,0.234-2.374-0.274-4.774l-0.246-1.161
	c-0.175-0.821-0.416-1.912-0.721-3.279c-0.348-1.178-0.864-1.822-1.554-1.931c-0.651-0.146-1.612-0.085-2.891,0.187l-0.228,0.048
	c-0.028,0.007-0.048-0.006-0.054-0.036l-0.035-0.159c-0.058-0.273,0.114-0.7,0.514-1.276
	C145.04,130.595,146.039,129.993,147.221,129.741z"/>
<path d="M170.781,123.953l0.456-0.096c2.277-0.484,4.715-0.152,7.309,0.995c0.922-1.261,1.953-2.01,3.091-2.251
	c0.851-0.117,1.322-0.129,1.422-0.041l0.028,0.136c-0.634,0.914-0.978,1.605-1.035,2.08c-0.117,0.561-0.126,1.097-0.018,1.6
	c0.044,0.212,0.29,0.8,0.734,1.771c0.088,0.269,0.156,0.515,0.204,0.743c0.39,1.838-0.102,3.369-1.475,4.599
	c-0.373,0.271-0.702,0.434-0.992,0.498c-0.38,0.079-0.604-0.056-0.68-0.405c-0.051-0.242,0.02-0.838,0.216-1.784
	c0.041-0.404,0.033-0.743-0.026-1.02l-0.043-0.201c-0.204-0.96-0.906-1.852-2.113-2.672c-0.822-0.431-1.533-0.707-2.132-0.835
	c-1.204-0.22-2.216-0.242-3.037-0.069l-0.409,0.089c-1.915,0.403-3.005,1.358-3.274,2.862c-0.079,0.682-0.041,1.371,0.106,2.069
	c0.343,1.613,1.531,2.843,3.57,3.696c1.794,0.825,2.836,1.216,3.128,1.168c0.527,0.081,1.14,0.044,1.837-0.104l0.158-0.033
	c1.108-0.236,2.004-0.735,2.684-1.497l0.021-0.005l0.005,0.021c-0.028,0.61,0.011,1.166,0.118,1.666l0.009,0.048
	c0.31,1.457,1.253,2.542,2.834,3.253c1.105,0.719,1.835,1.318,2.189,1.798c0.752,0.855,1.323,2.194,1.712,4.018l0.063,0.295
	c0.692,3.266-0.072,6.12-2.302,8.563c-1.525,1.563-3.542,2.607-6.05,3.14l-0.455,0.097c-2.46,0.522-4.791,0.266-6.998-0.774
	c-0.238-0.077-0.56-0.216-0.967-0.416l-0.023,0.006c-0.591,0.73-1.035,1.246-1.338,1.546c-0.461,0.449-0.989,0.736-1.58,0.861
	l-0.388,0.083c-0.76,0.16-1.195,0.155-1.312-0.008l-0.033-0.159c-0.007-0.032,0.127-0.228,0.398-0.587
	c0.721-1.392,0.966-2.625,0.737-3.702c-0.231-0.57-0.404-1.122-0.517-1.653c-0.478-2.248-0.087-3.887,1.172-4.915
	c0.284-0.299,0.659-0.516,1.124-0.645c0.485-0.103,0.765,0.012,0.834,0.347l0.006,0.023c0.029,0.135-0.027,0.608-0.176,1.418
	c-0.026,0.465-0.031,0.814-0.012,1.049c0.269,1.263,0.934,2.352,2.001,3.269c0.857,0.595,1.523,0.937,2.004,1.024
	c1.168,0.341,2.306,0.391,3.415,0.157l0.044-0.011c1.443-0.306,2.396-0.682,2.856-1.13c0.396-0.226,0.839-0.717,1.33-1.472
	c0.455-0.923,0.588-1.832,0.398-2.728l-0.066-0.321c-0.252-1.183-1.161-2.276-2.722-3.278c-0.543-0.234-1.065-0.297-1.565-0.19
	l-0.115,0.023c-0.805,0.171-1.736,0.718-2.795,1.641l-0.022,0.007l-0.004-0.025c-0.033-0.531-0.089-1.012-0.163-1.441
	c-0.409-1.928-1.622-3.162-3.644-3.702c-0.342-0.117-1.07-0.338-2.188-0.655c-0.555-0.151-1.308-0.517-2.255-1.09
	c-1.965-1.331-3.201-3.187-3.708-5.573c-0.563-2.656,0.18-5.22,2.227-7.688C166.32,125.625,168.38,124.462,170.781,123.953z"/>
<path d="M72.167,185.083l0.162-0.035c0.521-0.11,1.025-0.05,1.516,0.168c0.121,0.064,0.249,0.151,0.377,0.251
	c0.293-0.525,0.795-0.856,1.494-1.005c0.705-0.15,1.281-0.036,1.735,0.34c0.116,0.137,0.178,0.229,0.187,0.272l0.008,0.035
	c0.003,0.018-0.001,0.021-0.017,0.025l-0.226,0.048c-0.606,0.129-0.952,0.293-1.042,0.489c-0.036,0.1-0.039,0.216-0.013,0.338
	c0.051,0.239,0.367,0.957,0.957,2.173c0.52,1.155,0.93,1.875,1.233,2.146c0.182,0.186,0.447,0.295,0.792,0.328
	c0.151,0.001,0.257,0.002,0.309-0.009l0.003,0.016c-0.176,0.108-0.3,0.255-0.377,0.454c-0.068,0.224-0.071,0.478-0.009,0.774
	l0.032,0.152c0.145,0.68,0.797,2.172,1.958,4.479c0.201,0.3,0.427,0.477,0.684,0.529c0.208,0.03,0.526,0.001,0.954-0.091
	l0.014,0.021l0.009,0.044c0.022,0.178-0.058,0.42-0.241,0.744c-0.266,0.333-0.601,0.549-1,0.633l-0.122,0.026
	c-0.525,0.112-1.041,0.008-1.548-0.318l-0.173-0.141c-0.254,0.592-0.611,0.942-1.072,1.04l-0.116,0.024
	c-0.569,0.123-1.172-0.111-1.807-0.684c-0.009-0.013-0.017-0.032-0.019-0.043l-0.007-0.032c-0.002-0.01-0.002-0.022,0.005-0.023
	c0.668-0.142,1.063-0.318,1.183-0.527c0.073-0.142,0.089-0.287,0.057-0.445l-0.003-0.012c-0.077-0.364-0.279-0.89-0.612-1.561
	l-0.505-1.171l-3.327,0.706c-0.037,1.491-0.05,2.34-0.044,2.538c0.034,0.233,0.055,0.361,0.058,0.376
	c0.071,0.339,0.274,0.526,0.603,0.552c0.132,0.015,0.39-0.005,0.776-0.058l0.021,0.095c-0.049,0.212-0.181,0.454-0.397,0.733
	c-0.196,0.249-0.427,0.405-0.691,0.461c-0.399,0.086-0.864-0.054-1.394-0.421l-0.013,0.002c-0.074,0.316-0.264,0.579-0.567,0.778
	c-0.197,0.128-0.396,0.219-0.603,0.263c-0.579,0.123-1.077,0.002-1.493-0.368c-0.138-0.143-0.214-0.248-0.227-0.307l-0.018-0.083
	c-0.002-0.011,0.177-0.063,0.536-0.17c0.228-0.073,0.433-0.172,0.609-0.287c0.25-0.167,0.435-0.434,0.542-0.803
	c0.107-0.38,0.177-1.061,0.212-2.049c0.091-1.328,0.07-2.311-0.066-2.953c-0.115-0.545-0.319-0.86-0.609-0.938
	c-0.09-0.024-0.178-0.035-0.251-0.021l-0.003-0.015l0.009-0.002c0.192-0.041,0.405-0.208,0.637-0.504
	c0.194-0.313,0.329-0.614,0.404-0.899c0.206-0.69,0.336-1.824,0.391-3.401c0.04-0.42,0.041-0.727,0.001-0.912l-0.011-0.05
	c-0.045-0.216-0.247-0.317-0.605-0.303c-0.164,0.002-0.309,0.021-0.433,0.048l-0.352,0.075c-0.007,0.001-0.011-0.002-0.014-0.018
	l-0.002-0.012c-0.056-0.262,0.063-0.557,0.354-0.872C71.304,185.394,71.708,185.181,72.167,185.083z M73.956,187.915
	c-0.009,0.228-0.084,2.142-0.23,5.74l2.543-0.539c-1.53-3.442-2.296-5.179-2.303-5.202L73.956,187.915z"/>
<path d="M86.644,181.713l0.25-0.055c1.625-0.344,2.932-0.167,3.927,0.544c0.174,0.122,0.465,0.477,0.861,1.061
	c0.294,0.394,0.548,0.668,0.771,0.831c0.247,0.215,0.593,0.335,1.036,0.36c0.018,0.003,0.031,0.001,0.044-0.002l0.006,0.026
	c-0.299,0.152-0.519,0.348-0.664,0.593c-0.17,0.273-0.292,0.547-0.365,0.823c-0.111,0.417-0.248,0.946-0.405,1.584
	c-0.222,0.722-0.743,1.342-1.562,1.854c-0.576,0.342-1.177,0.577-1.796,0.708l-0.204,0.044c-0.338,0.071-0.899,0.146-1.679,0.232
	l0.828,3.899c0.135,0.637,0.287,1.019,0.461,1.157c0.113,0.124,0.306,0.206,0.577,0.227c0.309,0.021,0.718-0.017,1.228-0.125
	l0.014,0.02l0.024,0.112c-0.045,0.328-0.203,0.611-0.479,0.856c-0.263,0.238-0.574,0.396-0.933,0.473l-0.145,0.03
	c-0.603,0.128-1.175,0.038-1.724-0.275c-0.109-0.074-0.164-0.12-0.167-0.136c-0.271,0.591-0.787,0.968-1.542,1.129
	c-0.546,0.116-1.037,0.054-1.476-0.175c-0.246-0.168-0.399-0.319-0.46-0.455l-0.02-0.09c-0.002-0.012,0.005-0.024,0.024-0.029
	c0.889-0.187,1.405-0.438,1.547-0.76c0.099-0.249,0.1-0.632-0.011-1.149c-0.059-0.277-0.204-0.992-0.444-2.146
	c-0.297-1.395-0.682-2.239-1.16-2.527c-0.184-0.135-0.443-0.213-0.784-0.221l-0.012,0.002l-0.004-0.02
	c0.26-0.169,0.481-0.38,0.654-0.638c0.161-0.269,0.243-0.571,0.246-0.938c0.027-0.308-0.104-1.137-0.39-2.483l-0.096-0.449
	c-0.151-0.709-0.349-1.112-0.595-1.198c-0.272-0.146-0.765-0.139-1.478,0.014l-0.137,0.027c-0.013,0.003-0.019-0.004-0.022-0.019
	l-0.039-0.187c0.049-0.229,0.219-0.505,0.502-0.822c0.29-0.238,0.631-0.399,1.023-0.483c0.792-0.168,1.365-0.074,1.721,0.284
	l0.146,0.118C84.334,182.536,85.301,181.997,86.644,181.713z M85.712,184.895l0.798,3.76c0.008,0.036,0.249,0.014,0.732-0.054
	c0.026-0.005,0.101-0.021,0.217-0.04c1.06-0.225,1.67-0.622,1.818-1.212c0.097-0.316,0.093-0.733-0.015-1.242l-0.303-1.426
	c-0.196-0.924-0.657-1.468-1.381-1.626c-0.256-0.038-0.481-0.026-0.69,0.019l-0.166,0.035c-0.631,0.135-0.996,0.456-1.086,0.973
	C85.602,184.239,85.629,184.507,85.712,184.895z"/>
<path d="M98.706,179.152l0.246-0.054c1.626-0.345,2.936-0.166,3.929,0.545c0.177,0.121,0.463,0.477,0.859,1.06
	c0.294,0.394,0.552,0.669,0.773,0.83c0.249,0.215,0.59,0.337,1.038,0.36c0.014,0.006,0.028,0.002,0.04,0l0.007,0.024
	c-0.298,0.152-0.521,0.35-0.662,0.594c-0.171,0.273-0.295,0.546-0.364,0.823c-0.112,0.419-0.25,0.947-0.411,1.584
	c-0.221,0.722-0.738,1.342-1.56,1.854c-0.574,0.339-1.174,0.576-1.791,0.706l-0.209,0.045c-0.338,0.072-0.899,0.146-1.68,0.233
	l0.829,3.898c0.135,0.639,0.289,1.02,0.461,1.156c0.114,0.128,0.308,0.207,0.576,0.227c0.309,0.021,0.72-0.016,1.23-0.125
	l0.011,0.021l0.025,0.114c-0.042,0.326-0.202,0.609-0.476,0.854c-0.266,0.239-0.58,0.397-0.936,0.475l-0.147,0.03
	c-0.597,0.126-1.168,0.035-1.717-0.277c-0.112-0.075-0.169-0.121-0.172-0.135c-0.272,0.59-0.784,0.967-1.542,1.129
	c-0.543,0.115-1.037,0.055-1.474-0.176c-0.242-0.17-0.4-0.319-0.462-0.455l-0.021-0.09c-0.001-0.011,0.007-0.023,0.026-0.028
	c0.889-0.188,1.406-0.438,1.546-0.76c0.107-0.252,0.103-0.634-0.007-1.15c-0.058-0.278-0.206-0.992-0.441-2.145
	c-0.296-1.397-0.687-2.24-1.165-2.528c-0.18-0.136-0.441-0.214-0.784-0.221l-0.008,0.003l-0.004-0.021
	c0.256-0.169,0.475-0.378,0.65-0.638c0.161-0.267,0.241-0.571,0.245-0.938c0.028-0.308-0.098-1.138-0.384-2.484l-0.095-0.448
	c-0.151-0.71-0.355-1.111-0.602-1.197c-0.271-0.146-0.764-0.14-1.478,0.012l-0.137,0.03c-0.014,0.001-0.02-0.005-0.023-0.021
	l-0.041-0.188c0.053-0.229,0.221-0.505,0.506-0.82c0.287-0.238,0.626-0.398,1.021-0.484c0.792-0.167,1.367-0.073,1.723,0.282
	l0.146,0.12C96.391,179.977,97.359,179.438,98.706,179.152z M97.769,182.334l0.798,3.761c0.008,0.035,0.254,0.012,0.733-0.053
	c0.032-0.007,0.102-0.021,0.217-0.041c1.065-0.226,1.669-0.623,1.819-1.213c0.099-0.318,0.095-0.732-0.014-1.242l-0.303-1.426
	c-0.196-0.924-0.659-1.466-1.382-1.627c-0.253-0.037-0.48-0.025-0.688,0.02l-0.164,0.034c-0.636,0.135-0.999,0.458-1.093,0.975
	C97.664,181.678,97.688,181.948,97.769,182.334z"/>
<path d="M110.748,176.512l0.257-0.055c1.605-0.34,2.899-0.104,3.888,0.701c0.309,0.241,0.604,0.662,0.891,1.256
	c0.226,0.377,0.469,0.624,0.736,0.729c0.082,0.021,0.129,0.026,0.135,0.025l0.002,0.013c-0.241,0.197-0.415,0.552-0.506,1.055
	c-0.104,0.609-0.188,1.019-0.255,1.242c-0.281,0.579-0.747,1.059-1.402,1.444l0.003,0.008c0.402-0.009,0.749,0.021,1.043,0.07
	c0.326,0.051,0.658,0.188,0.99,0.394c0.389,0.272,0.641,0.689,0.76,1.252l0.679,3.198c0.148,0.698,0.373,1.106,0.685,1.235
	c0.237,0.111,0.613,0.107,1.122-0.001l0.015,0.017l0.03,0.146c-0.088,0.257-0.251,0.502-0.49,0.734
	c-0.272,0.248-0.574,0.402-0.905,0.473c-0.487,0.104-0.977-0.035-1.467-0.402c-0.18,0.405-0.485,0.726-0.909,0.961
	c-0.207,0.109-0.392,0.182-0.548,0.215l-0.014-0.021l-1.169-5.506c-0.165-0.781-0.399-1.206-0.69-1.271
	c-0.188-0.134-0.838-0.082-1.946,0.154l-0.814,0.173l0.985,4.645c0.12,0.561,0.344,0.901,0.676,0.998
	c0.329,0.084,0.826,0.05,1.504-0.094l0.013,0.016l0.023,0.11c-0.063,0.359-0.253,0.674-0.57,0.963
	c-0.311,0.231-0.642,0.394-0.995,0.47c-0.687,0.145-1.312-0.012-1.88-0.467c-0.241,0.626-0.685,1.01-1.331,1.148
	c-0.635,0.134-1.27-0.021-1.913-0.46c-0.129-0.095-0.196-0.156-0.201-0.183l-0.025-0.119l0.008-0.02
	c0.86-0.184,1.373-0.416,1.535-0.704c0.134-0.205,0.138-0.613,0.01-1.217c0.011-0.003-0.165-0.85-0.517-2.553
	c-0.004-0.016-0.01-0.057-0.016-0.116c-0.014-0.028-0.026-0.074-0.041-0.147l-0.01-0.044c-0.259-1.219-0.571-1.928-0.934-2.114
	c-0.178-0.117-0.347-0.168-0.514-0.168l-0.006-0.023c0.299-0.166,0.489-0.377,0.577-0.638c0.103-0.316,0.078-0.816-0.07-1.514
	l-0.007-0.037c-0.015-0.065-0.019-0.097-0.012-0.099c-0.002-0.015-0.015-0.045-0.03-0.102c-0.381-1.783-0.597-2.671-0.654-2.659
	c-0.065-0.174-0.202-0.319-0.406-0.438c-0.305-0.115-0.825-0.098-1.563,0.061l-0.017-0.018l-0.026-0.125
	c0.021-0.218,0.125-0.431,0.32-0.637c0.341-0.325,0.761-0.54,1.264-0.647c0.661-0.14,1.257-0.028,1.778,0.329
	c0.15-0.26,0.335-0.465,0.548-0.621C108.989,177.053,109.783,176.717,110.748,176.512z M109.773,179.603l0.771,3.639l0.866-0.184
	c1.123-0.239,1.72-0.664,1.795-1.268c0.075-0.324,0.074-0.678-0.011-1.066l-0.306-1.448c-0.176-0.82-0.549-1.289-1.122-1.41
	c-0.248-0.057-0.549-0.046-0.9,0.027c-0.621,0.133-0.987,0.374-1.102,0.719C109.683,178.87,109.685,179.198,109.773,179.603z"/>
<path d="M121.929,174.042l0.33-0.068c0.666-0.144,1.377-0.096,2.135,0.13c0.301,0.104,0.646,0.27,1.035,0.502
	c0.549,0.396,0.954,0.749,1.21,1.072c0.281,0.316,0.596,0.774,0.949,1.357c0.178,0.316,0.444,0.932,0.795,1.839
	c0.168,0.343,0.329,0.604,0.481,0.788c0.226,0.244,0.5,0.397,0.819,0.456l0.003,0.017c-0.164,0.107-0.295,0.252-0.389,0.444
	c-0.145,0.236-0.225,0.603-0.238,1.113c-0.01,0.307,0.03,0.938,0.117,1.883c-0.014,0.642-0.067,1.191-0.157,1.647
	c-0.129,0.75-0.402,1.472-0.812,2.162c-0.356,0.507-0.675,0.874-0.96,1.094c-0.548,0.432-1.124,0.714-1.731,0.844l-0.329,0.07
	c-0.67,0.141-1.37,0.099-2.099-0.116c-0.296-0.099-0.629-0.26-1.001-0.493c-0.49-0.332-0.799-0.58-0.926-0.741
	c-0.434-0.42-0.843-0.962-1.232-1.63c-0.21-0.357-0.497-0.994-0.864-1.936c-0.254-0.551-0.491-0.968-0.72-1.26
	c-0.148-0.196-0.367-0.393-0.649-0.572c-0.009,0.002-0.068-0.03-0.184-0.094c0.479-0.525,0.743-1.053,0.797-1.584
	c0.021-0.227,0.011-0.688-0.011-1.387c0.043-0.776,0.13-1.413,0.259-1.916c0.11-0.411,0.274-0.856,0.494-1.336
	c0.326-0.546,0.577-0.897,0.761-1.059c0.227-0.251,0.452-0.449,0.671-0.595C120.979,174.352,121.456,174.142,121.929,174.042z
	 M121.461,179.424c0.242,1.135,0.618,1.781,1.138,1.939c0.06,0.021,0.092,0.038,0.091,0.04c-0.182,0.294-0.289,0.542-0.322,0.764
	c-0.105,0.522-0.057,1.25,0.143,2.196c0.366,1.617,0.567,2.419,0.607,2.41c0.025,0.116,0.141,0.348,0.339,0.671
	c0.326,0.442,0.854,0.584,1.59,0.429c0.743-0.158,1.17-0.519,1.272-1.088c0.083-0.379,0.009-1.109-0.217-2.178
	c-0.097-0.506-0.176-0.894-0.233-1.16c-0.297-1.404-0.681-2.207-1.151-2.427l-0.094-0.026l-0.001-0.004
	c0.367-0.657,0.47-1.35,0.312-2.091l-0.029-0.143c-0.294-1.224-0.482-1.935-0.558-2.117c-0.053-0.227-0.2-0.5-0.435-0.825
	c-0.334-0.362-0.838-0.468-1.51-0.327c-0.762,0.164-1.188,0.528-1.272,1.102c-0.107,0.326-0.016,1.156,0.271,2.502
	C121.413,179.174,121.435,179.291,121.461,179.424z"/>
<path d="M131.458,172.388l0.134-0.029c0.545-0.115,1.067,0.036,1.563,0.446c0.104,0.112,0.18,0.213,0.225,0.298l0.004,0.021
	c0.004,0.014-0.002,0.019-0.015,0.023l-0.198,0.041c-0.7,0.148-1.086,0.297-1.145,0.445c-0.11,0.153-0.153,0.309-0.118,0.472
	l0.008,0.03c0.047,0.229,0.313,0.803,0.788,1.737c0.125,0.269,1.1,2.279,2.925,6.031l0.011-0.003l0.175-6.592
	c0.057-1.402,0.075-2.155,0.052-2.271c-0.047-0.209-0.243-0.296-0.592-0.274c-0.076,0.01-0.146,0.022-0.207,0.037l-0.063,0.014
	c-0.016,0.003-0.023-0.011-0.036-0.026l-0.019-0.087c-0.033-0.168,0.076-0.404,0.332-0.716c0.241-0.247,0.489-0.398,0.761-0.455
	c0.398-0.086,0.765,0.063,1.094,0.44l0.023-0.005c0.189-0.487,0.511-0.781,0.959-0.877c0.446-0.096,0.863,0.043,1.247,0.396
	c0.115,0.126,0.176,0.217,0.188,0.273l0.012,0.054c0.003,0.018-0.016,0.037-0.066,0.046l-0.053,0.012
	c-0.813,0.173-1.273,0.524-1.388,1.048c-0.055,0.228-0.104,0.805-0.136,1.729c-0.115,1.503-0.124,2.47-0.031,2.906
	c0.063,0.296,0.2,0.52,0.41,0.671c-0.229,0.142-0.393,0.428-0.499,0.848c-0.133,0.601-0.235,1.848-0.309,3.736
	c-0.057,0.885-0.065,1.428-0.023,1.629l0.035,0.158c0.059,0.281,0.262,0.44,0.6,0.483c0.301,0.028,0.629,0.011,0.982-0.063
	l0.32-0.069c0.012,0.005,0.025,0.008,0.025,0.01l0.026,0.125c0,0.184-0.088,0.396-0.266,0.646c-0.31,0.366-0.702,0.613-1.176,0.714
	l-0.156,0.032c-0.57,0.122-1.121,0.014-1.645-0.321l-0.176-0.129c-0.094,0.346-0.349,0.652-0.769,0.908
	c-0.199,0.107-0.368,0.171-0.522,0.203l-0.153,0.031c-0.602,0.13-1.209-0.012-1.823-0.403l-0.195-0.16l-0.04-0.181
	c0.006-0.01,0.01-0.019,0.017-0.018l0.195-0.043c0.754-0.16,1.184-0.406,1.295-0.731c0.075-0.146,0.093-0.318,0.056-0.498
	c-0.05-0.23-0.195-0.552-0.436-0.974c-0.88-1.809-1.539-3.031-1.979-3.681c-0.202-0.257-0.383-0.432-0.534-0.535
	c-0.12-0.066-0.257-0.108-0.401-0.114l-0.003-0.016c0.161-0.283,0.207-0.594,0.139-0.918l-0.005-0.021
	c-0.09-0.422-0.48-1.268-1.177-2.541c-0.445-0.875-0.727-1.39-0.835-1.534c-0.082-0.116-0.217-0.228-0.403-0.339
	c-0.291-0.115-0.694-0.109-1.209,0l-0.065,0.015c-0.077,0.016-0.116,0.01-0.12-0.008l-0.019-0.089
	c0.026-0.146,0.17-0.375,0.428-0.687c0.276-0.302,0.588-0.488,0.938-0.563l0.053-0.011c0.487-0.104,1.038,0.011,1.647,0.344
	l0.011-0.001C130.461,172.861,130.907,172.504,131.458,172.388z"/>
<path d="M145.591,169.126l0.27-0.058c1.083-0.231,2.158-0.156,3.231,0.21c0.301-0.447,0.673-0.723,1.121-0.815
	c0.483-0.068,0.748-0.069,0.798,0.003c-0.439,0.633-0.613,1.158-0.52,1.6c0.072,0.318,0.129,0.57,0.173,0.773l0.029,0.151
	l0.025,0.05c-0.006,0.017-0.006,0.037-0.003,0.052l0.02,0.099c0.174,0.807,0.021,1.458-0.454,1.961
	c-0.186,0.255-0.401,0.407-0.658,0.463l-0.022,0.005c-0.103-0.054-0.167-0.147-0.194-0.268c-0.019-0.097-0.008-0.539,0.027-1.34
	c0.005-0.171-0.01-0.392-0.049-0.641c-0.143-0.666-0.558-1.104-1.242-1.314c-0.44-0.091-0.908-0.082-1.396,0.021
	c-0.603,0.127-1.087,0.381-1.46,0.751c-0.164,0.17-0.259,0.411-0.285,0.722c-0.013,0.153,0.026,0.455,0.123,0.908l0.703,3.312
	c0.348-0.062,0.62-0.116,0.816-0.158l0.351-0.074c0.965-0.206,1.678-0.555,2.132-1.054c0.003,0.013,0.008,0.011,0.012,0.011
	c0.133,0.618-0.013,1.118-0.436,1.488c0.219,0.021,0.414,0.126,0.585,0.317c0.134,0.174,0.245,0.452,0.327,0.836l0.002,0.011
	l-0.021,0.003c-0.454-0.175-0.957-0.248-1.508-0.193c-0.357,0.02-0.909,0.104-1.663,0.265c-0.078,0.029-0.171,0.054-0.273,0.075
	l0.811,3.815c0.207,0.976,0.412,1.537,0.613,1.676c0.243,0.25,0.62,0.32,1.148,0.209l0.203-0.044
	c0.443-0.093,0.937-0.324,1.483-0.691c0.353-0.251,0.564-0.563,0.638-0.933c0.042-0.271,0.028-0.571-0.041-0.9
	c-0.048-0.224-0.216-0.729-0.506-1.501c-0.022-0.082-0.039-0.143-0.046-0.172c-0.045-0.214,0.012-0.341,0.172-0.375
	c0.674,0.302,1.169,0.71,1.478,1.212c0.192,0.331,0.374,0.918,0.553,1.762c0.066,0.305,0.363,0.655,0.888,1.062
	c0.102,0.079,0.267,0.187,0.496,0.323c-0.026,0.067-0.155,0.124-0.383,0.171c0.004,0.01-0.072,0.025-0.222,0.058L153.29,183
	c-0.441,0.093-0.907,0.004-1.393-0.26l-0.183-0.079h-0.007c-0.38,0.389-0.704,0.688-0.979,0.884
	c-0.486,0.359-1.083,0.609-1.783,0.759l-0.258,0.055c-1.138,0.24-2.063,0.094-2.771-0.433c-0.117,0.339-0.316,0.604-0.599,0.799
	c-0.252,0.133-0.5,0.228-0.749,0.28l-0.248,0.053c-0.689,0.146-1.308-0.064-1.85-0.627c-0.011-0.004-0.019-0.023-0.021-0.03
	l-0.018-0.081c-0.002-0.007,0.011-0.017,0.033-0.021c0.893-0.188,1.406-0.442,1.543-0.751c0.095-0.278,0.104-0.58,0.038-0.895
	c-0.542-2.547-0.895-3.922-1.056-4.116c-0.139-0.302-0.319-0.538-0.54-0.706c-0.297-0.177-0.608-0.265-0.929-0.257l-0.003-0.02
	c0.211-0.112,0.401-0.261,0.566-0.432c0.231-0.259,0.358-0.622,0.38-1.091c0.041-0.355-0.094-1.259-0.396-2.687l-0.146-0.687
	c-0.111-0.523-0.312-0.854-0.604-0.971c-0.301-0.104-0.814-0.074-1.537,0.08l-0.019-0.02l-0.019-0.081
	c0.125-0.441,0.465-0.826,1.019-1.171c0.233-0.113,0.452-0.204,0.648-0.245l0.063-0.014c0.633-0.134,1.175,0.014,1.626,0.438
	C143.469,169.917,144.299,169.401,145.591,169.126z"/>
<path d="M156.925,166.762l0.321-0.068c1.054-0.224,2.035-0.177,2.934,0.125c0.936,0.314,1.74,1.002,2.415,2.061
	c0.267,0.429,0.506,0.919,0.716,1.452c0.209,0.603,0.39,1.057,0.541,1.346c0.313,0.527,0.642,0.851,1.011,0.988
	c0.185,0.064,0.3,0.094,0.332,0.087l0.007,0.031c-0.289,0.192-0.503,0.495-0.639,0.899c-0.11,0.332-0.153,0.773-0.129,1.313
	c0.005,0.238,0.039,0.755,0.099,1.543c0.001,0.485-0.033,0.941-0.098,1.382c-0.209,1.212-0.738,2.138-1.59,2.795
	c-0.702,0.52-1.544,0.888-2.526,1.094l-0.32,0.07c-1.17,0.247-2.072,0.107-2.716-0.432c-0.193,0.581-0.663,0.945-1.4,1.101
	c-0.604,0.129-1.174,0.057-1.706-0.21c-0.213-0.122-0.34-0.28-0.38-0.471c-0.001-0.029,0.005-0.046,0.018-0.048
	c0.879-0.187,1.397-0.442,1.553-0.787c0.103-0.256,0.108-0.617,0.007-1.093c-0.041-0.19-0.144-0.723-0.306-1.589
	c-0.312-1.466-0.756-2.399-1.332-2.813c-0.277-0.188-0.495-0.296-0.65-0.313c-0.112-0.024-0.167-0.035-0.17-0.041v-0.008
	c0.832-0.647,1.077-1.778,0.733-3.402c-0.293-1.379-0.471-2.066-0.532-2.055c-0.117-0.209-0.249-0.348-0.396-0.399
	c-0.296-0.069-0.539-0.093-0.718-0.055c-0.082-0.009-0.363,0.031-0.852,0.119l-0.011-0.024l-0.018-0.084
	c0.069-0.332,0.27-0.657,0.59-0.976c0.271-0.217,0.562-0.356,0.87-0.424l0.096-0.019c0.781-0.166,1.384-0.021,1.817,0.438
	C154.878,167.542,155.687,167.025,156.925,166.762z M156.437,169.708l0.221,1.044c0.354,1.666,0.814,2.619,1.371,2.877
	c0.093,0.022,0.143,0.03,0.154,0.026l0.003,0.017c-0.18,0.311-0.292,0.675-0.315,1.099c-0.02,0.677-0.01,1.134,0.043,1.379
	c0.042,0.537,0.224,1.57,0.551,3.109l0.029,0.138c0.137,0.641,0.386,1.018,0.751,1.123c0.226,0.043,0.509,0.04,0.844-0.032
	c0.994-0.211,1.458-0.952,1.399-2.217c-0.011-0.312-0.061-0.686-0.157-1.138l-1.414-6.659c-0.398-1.885-1.201-2.694-2.409-2.438
	c-0.618,0.132-0.981,0.372-1.082,0.727C156.353,169.018,156.356,169.328,156.437,169.708z"/>
<polygon points="100.542,203.359 102.752,206.165 106.316,205.931 104.333,208.9 105.653,212.215 102.218,211.246 99.472,213.53 
	99.331,209.962 96.313,208.054 99.662,206.821 "/>
<polygon points="120.145,199.197 122.354,202.002 125.917,201.77 123.937,204.739 125.256,208.054 121.819,207.083 119.074,209.368 
	118.936,205.799 115.917,203.892 119.267,202.657 "/>
<polygon points="139.75,195.035 141.96,197.839 145.523,197.607 143.54,200.577 144.864,203.892 141.423,202.921 138.681,205.204 
	138.539,201.637 135.523,199.729 138.871,198.495 "/>
<path fill-rule="evenodd" clip-rule="evenodd" d="M126.929,18.212c-0.018-0.078-0.033-0.157-0.051-0.235
	c-2.563-5.919-7.488-8.2-13.427-8.926c-0.078,0.017-0.156,0.034-0.234,0.05c-0.712-0.152-1.39-0.354-2.263-0.255
	c-0.078,0.016-0.156,0.033-0.233,0.049c-0.919-0.145-1.966-0.089-2.968-0.106c-0.548,0.116-1.095,0.232-1.644,0.348
	c-2.778,0.019-6.355,1.267-9.44,1.759C91.393,4.963,85.014-1.855,75.317,0.465c-9.814,2.348-10.839,11.668-10.718,21.167
	c-2.603,0.268-4.652-0.315-7.342,0.086c-0.235,0.049-0.469,0.1-0.704,0.149c-3.481-0.274-9.675,0.887-12.678,2.692
	c-0.078,0.017-0.156,0.034-0.234,0.05c-0.578,0.232-1.009,0.559-1.259,1.002c-0.078,0.017-0.156,0.034-0.235,0.051
	c-3.747,1.822-2.973,8.413-1.45,12.82c3.206,9.269,13.57,14.63,19.796,18.124c0.079-0.017,0.157-0.033,0.234-0.049
	c0.848,0.772,2.051,0.999,3.031,1.564c0.079-0.017,0.157-0.034,0.235-0.05c1.672,1.061,3.925,1.226,5.442,2.524
	c0.722,4.184,2.356,6.964,4.577,8.842c0.016,0.079,0.033,0.157,0.049,0.234c1.57,3.183,6.984,3.096,6.305,7.74
	c0.017,0.078,0.034,0.156,0.05,0.234c-0.681,6.236-5.751,9.62-7.873,14.921c0.034,0.155,0.066,0.313,0.1,0.47
	c0.719,0.463,1.497,0.825,2.313,1.116l13.411-2.847c0.225,0.263,0.464,0.503,0.739,0.688c0.017,0.079,0.034,0.157,0.049,0.236
	c0.407,0.931,1.183,1.294,2.227,1.243c0.768-1.088,1.521-2.186,2.266-3.288c0,0.001,0,0.001,0,0.001l33.573-7.128
	c0.245-0.602,0.364-1.238,0.308-1.92c-0.267-3.271-3.82-5.445-6.021-7.556c-2.046-1.963-10.908-7.787-3.651-10.265
	c-0.169-0.883-1.164-0.495-1.103-1.729c0.077-0.017,0.155-0.033,0.233-0.05c-0.149-0.703-0.298-1.407-0.448-2.112
	c-0.017-0.078-0.033-0.156-0.05-0.235c0.079-0.017,0.157-0.034,0.235-0.049c0.088-0.349,0.408-0.544,0.84-0.669
	c-0.521-0.964-1.218-1.658-1.772-2.568c-0.017-0.078-0.034-0.156-0.051-0.234c-0.468-1.047,0.132-1.399,1.16-1.474
	c-0.243-0.56-0.648-0.871-1.003-1.259c-0.017-0.078-0.032-0.156-0.05-0.233c-0.089-0.592-0.524-0.649-0.719-1.075
	c7.367-7.153,13.823-14.899,13.092-27.314c-0.016-0.078-0.032-0.157-0.049-0.234C128.266,22.586,127.62,19.542,126.929,18.212z
	 M40.014,31.771c0.007-0.027,0.008-0.056,0.014-0.084C40.022,31.714,40.021,31.744,40.014,31.771z M40.344,27.917
	c-0.13,0.319-0.231,0.662-0.318,1.014c0.087-0.353,0.188-0.696,0.319-1.016C40.345,27.916,40.345,27.917,40.344,27.917z
	 M39.725,31.483c0.009-0.804,0.086-1.576,0.242-2.293C39.811,29.907,39.734,30.679,39.725,31.483z M39.773,33.001
	c-0.033-0.412-0.046-0.819-0.049-1.222C39.727,32.182,39.74,32.59,39.773,33.001z M40.464,27.668
	C40.464,27.668,40.464,27.669,40.464,27.668c0.001-0.002,0.004-0.004,0.005-0.006C40.468,27.665,40.466,27.667,40.464,27.668z
	 M87.514,61.412c-0.178,0.021-0.347,0.047-0.503,0.081c-0.156,0.034-0.299,0.075-0.427,0.125c-0.079,0.018-0.157,0.033-0.235,0.051
	c-1.778-0.434-1.639-1.256-2.932-1.095c-2.595,0.322-1.901,3.637-4.112,2.59c-0.078,0.017-0.157,0.033-0.235,0.05
	c-0.017-0.08-0.034-0.158-0.05-0.237c-0.839,0.254-1.535,0.288-2.162,0.215c-0.358-1.319-1.523-1.394-1.823-2.803
	c0.214-2.024,2.561-1.867,4.246-3.109c1.448-1.067,1.745-2.561,4.397-2.406c2.612,2.104,7.845,0.176,9.598,3.605
	c0.016,0.078,0.033,0.157,0.049,0.235c0.106,0.499,0.212,0.997,0.318,1.496c0,0,0,0,0,0c-0.064,0.16-0.156,0.302-0.281,0.42l0,0
	c-0.801,0.761-2.716,0.691-4.415,0.71c1.694-0.022,3.614,0.05,4.415-0.71C91.442,60.849,89.594,60.952,87.514,61.412z
	 M88.412,61.353c-0.064,0.002-0.129,0.004-0.191,0.007C88.283,61.356,88.348,61.355,88.412,61.353z M70.903,57.096
	c0.016,0.079,0.033,0.156,0.049,0.234c-0.517,0.069,0.07,0.855,0.014,1.225c-0.493,0.24-0.429-0.377-0.803-0.32
	c-0.017-0.079-0.033-0.158-0.05-0.236c-1.538-2.899-1.575-6.835-2.613-9.995c-0.033-0.156-0.066-0.312-0.1-0.469
	c-0.078,0.017-0.156,0.033-0.235,0.05c-0.066-0.313-0.133-0.626-0.2-0.939c-0.199-0.938-0.398-1.877-0.598-2.816
	c-0.05-0.235-0.101-0.47-0.15-0.705c0.078-0.017,0.156-0.034,0.235-0.05c-0.016-0.078-0.033-0.156-0.049-0.234
	c0.177-1.302-0.203-2.966,0.376-4.006c-0.017-0.078-0.034-0.156-0.05-0.234c1.008-1.041,2.209-3.628,4.062-2.825
	c0.145,2.658-2.809,3.301-2.66,5.961c0.016,0.079,0.033,0.158,0.049,0.235c-0.417,0.539-0.2,1.488,0.029,2.447
	c1.12-2.511,1.719-5.36,5.576-6.092c0.436,0.057,0.219,1.119,0.72,1.075c0.016,0.079,0.033,0.157,0.049,0.234
	c0.575,0.57,0.461,2.198,1.068,2.718c1.506-0.373,1-2.052,0.836-3.509c-0.003,0.016-0.005,0.034-0.008,0.052
	c0.003-0.018,0.005-0.036,0.008-0.053c0,0.001,0,0.001,0,0.001c0.072-0.483,0.154-0.958,0.248-1.426v0
	c0.555-1.005,1.408-2.021,1.547-3.474c0.096-1.004-1.227-2.609,0.291-3.252c2.374,1.123,4.246,3.018,6.361,4.538
	c2.234-0.325,5.088-1.601,6.303-0.357c0.64,0.26,0.249,2.108,1.153,1.963c-0.409-1.076-0.078-1.67-0.313-2.632
	c-0.017-0.078-0.033-0.157-0.05-0.235c-0.972-1.411-3.156-0.957-4.169-2.304c0.839-1.87,3.385-0.624,4.98-0.812
	c0.024-1.492-1.344-0.839-1.438-2.148c2.542-1.08,4.592,1.217,6.012,2.895c0.017,0.079,0.033,0.156,0.05,0.234
	c1.03,5.063,2.387,10.927,3.24,15.261c0.017,0.078,0.033,0.156,0.05,0.234c-1.338,3.11-1.628,6.903-4.459,9.043
	c-0.922-0.241-1.396-1.172-2.277-1.479c-0.435-0.822,0.802-0.559,0.456-1.323c-0.091-0.06-0.187-0.111-0.278-0.168
	c0.004,0.009,0.004,0.014,0.008,0.022c-0.004-0.008-0.004-0.014-0.009-0.022c0,0,0.001,0,0.001,0
	c-0.003-0.006-0.003-0.01-0.006-0.016c-0.015-0.002-0.025-0.008-0.038-0.011c-1.772-1.071-3.701-1.555-5.591-2.23
	c-0.912-0.326-1.84-0.523-2.769-0.702c0.009,0.002,0.016,0.005,0.024,0.007c-0.008-0.002-0.017-0.004-0.025-0.007
	c0,0,0,0.001,0.001,0c-0.001,0-0.002,0-0.003-0.001c-0.328-0.086-0.66-0.169-0.996-0.246c-0.545-0.129-1.097-0.25-1.661-0.351
	c-0.029,0.006-0.057,0.011-0.085,0.018c-0.32-0.085-0.638-0.177-0.953-0.289c-1.853-0.649-3.227-2.984-5.863-2.189
	c-0.585,1.057,0.677,1.265,0.918,2.013c0.017,0.078,0.034,0.156,0.049,0.235c-1.013,2.714-3.646,4.376-4.622,7.115
	c-0.766,0.347-0.501-0.891-1.324-0.456C70.948,56.452,70.807,56.697,70.903,57.096c-0.007-0.103-0.005-0.181,0.001-0.249
	C70.897,56.916,70.896,56.994,70.903,57.096z M76.161,40.636c0.026-0.132,0.052-0.262,0.076-0.396
	C76.213,40.374,76.187,40.504,76.161,40.636z M76.708,37.418c0.054-0.266,0.116-0.528,0.185-0.786
	C76.824,36.891,76.762,37.152,76.708,37.418z M76.969,36.373c0.059-0.197,0.121-0.393,0.194-0.581
	C77.091,35.98,77.027,36.175,76.969,36.373z M77.357,35.36c0.061-0.128,0.115-0.261,0.186-0.384
	C77.473,35.099,77.418,35.232,77.357,35.36z M99.626,34.069c1.389,0.943,1.953,3.686,1.666,5.535
	c0.017,0.078,0.033,0.155,0.05,0.234c-0.447,0.249,0.186,1.2-0.74,1.138c-0.05-0.234-0.1-0.469-0.149-0.705
	c-0.017-0.078-0.034-0.156-0.05-0.234C100.763,38.313,99.708,35.531,99.626,34.069z M77.837,50.471
	c-0.535,0.462-1.027,0.952-1.49,1.461C76.809,51.421,77.303,50.934,77.837,50.471z M75.077,53.518c0,0.001-0.001,0.002-0.001,0.003
	c0.312-0.448,0.621-0.891,0.909-1.305C75.697,52.629,75.388,53.072,75.077,53.518z M77.26,50.389
	c0.009-0.012,0.021-0.029,0.03-0.042C77.282,50.359,77.27,50.376,77.26,50.389z M77.443,50.132c0-0.002,0.004-0.004,0.004-0.006
	C77.447,50.127,77.443,50.13,77.443,50.132z M91.512,52.475c1.026,0.054,1.615,0.785,2.602,0.898
	C93.127,53.26,92.538,52.53,91.512,52.475z M93.698,54.311c-0.001,0.003-0.005,0.006-0.007,0.01
	C93.693,54.317,93.697,54.314,93.698,54.311z M100.974,48.503c-0.251,0.294-0.465,0.614-0.652,0.949
	C100.51,49.117,100.723,48.798,100.974,48.503z M100.316,49.459c-0.187,0.336-0.349,0.69-0.496,1.053c0,0-0.001,0.001-0.001,0.002
	C99.967,50.149,100.128,49.796,100.316,49.459z M99.468,51.465c-0.107,0.31-0.212,0.62-0.317,0.929
	C99.255,52.085,99.36,51.775,99.468,51.465z M98.996,52.837c-0.016,0.048-0.035,0.095-0.052,0.142
	C98.961,52.932,98.979,52.885,98.996,52.837z M98.734,53.527c-0.018,0.042-0.036,0.085-0.052,0.127
	C98.698,53.612,98.716,53.569,98.734,53.527z M98.415,54.241c-0.008,0.017-0.017,0.035-0.026,0.052
	C98.398,54.276,98.407,54.258,98.415,54.241z M97.595,55.521c-0.002,0.002-0.003,0.004-0.005,0.006
	C97.592,55.525,97.593,55.523,97.595,55.521z M97.09,56.037c-0.017,0.014-0.034,0.029-0.051,0.044
	C97.056,56.066,97.073,56.051,97.09,56.037z M96.431,56.529c-0.001,0.001-0.002,0.002-0.002,0.002c-0.001,0-0.001,0-0.001,0
	C96.429,56.531,96.43,56.53,96.431,56.529z M96.21,56.55L96.21,56.55c-0.439-0.25-0.904-0.46-1.331-0.728
	C95.307,56.09,95.771,56.3,96.21,56.55z M94.814,55.783c-0.086-0.056-0.167-0.117-0.25-0.179
	C94.647,55.666,94.729,55.727,94.814,55.783z M94.468,55.532c-0.076-0.061-0.146-0.131-0.215-0.2
	C94.323,55.401,94.393,55.471,94.468,55.532z M94.155,55.24c-0.069-0.076-0.133-0.162-0.195-0.248
	C94.022,55.078,94.085,55.164,94.155,55.24z M93.881,54.892c-0.083-0.127-0.16-0.265-0.227-0.418
	C93.722,54.626,93.798,54.765,93.881,54.892z M91.278,52.524c-0.529-0.272-1.077-0.518-1.629-0.754
	C90.203,52.005,90.749,52.252,91.278,52.524z M88.964,51.491c-0.302-0.12-0.61-0.23-0.919-0.34
	C88.354,51.26,88.661,51.372,88.964,51.491z M70.949,56.675c-0.017,0.03-0.03,0.071-0.039,0.122
	C70.919,56.746,70.932,56.704,70.949,56.675z M71.037,56.603c-0.031,0.007-0.059,0.023-0.079,0.054
	C70.978,56.626,71.006,56.61,71.037,56.603z M71.305,56.685c-0.043-0.026-0.085-0.048-0.124-0.063
	C71.22,56.637,71.261,56.658,71.305,56.685z M71.148,56.612c-0.03-0.008-0.058-0.013-0.084-0.012
	C71.091,56.599,71.118,56.604,71.148,56.612z M71.444,56.776c-0.024-0.017-0.049-0.032-0.072-0.048
	C71.395,56.744,71.419,56.759,71.444,56.776z M71.863,57.073C71.862,57.073,71.862,57.073,71.863,57.073L71.863,57.073
	C71.862,57.073,71.862,57.073,71.863,57.073z M72.203,57.248c-0.004,0-0.007-0.001-0.009-0.003
	C72.196,57.247,72.199,57.248,72.203,57.248z M72.65,56.96c-0.033,0.045-0.054,0.071-0.08,0.106
	C72.597,57.031,72.618,57.005,72.65,56.96z M72.482,57.184c-0.04,0.053-0.065,0.082-0.072,0.083
	C72.417,57.265,72.443,57.236,72.482,57.184z M73.58,55.655c-0.026,0.037-0.05,0.069-0.075,0.106
	C73.53,55.725,73.554,55.692,73.58,55.655z M73.211,56.178c-0.032,0.044-0.058,0.081-0.088,0.123
	C73.153,56.259,73.179,56.222,73.211,56.178z M72.898,56.616c-0.037,0.052-0.065,0.09-0.098,0.136
	C72.833,56.706,72.861,56.667,72.898,56.616z M73.989,55.074c-0.027,0.038-0.052,0.073-0.079,0.11
	C73.938,55.146,73.962,55.111,73.989,55.074z M93.724,59.406c0.009,0.065,0.015,0.128,0.019,0.19
	C93.74,59.536,93.731,59.471,93.724,59.406z M93.734,59.788c-0.01,0.155-0.04,0.296-0.089,0.421
	C93.695,60.083,93.722,59.941,93.734,59.788z M93.81,55.442c-0.053-0.051-0.105-0.099-0.156-0.154
	C93.705,55.343,93.757,55.391,93.81,55.442z M96.207,56.55c-0.441,0.025-0.897-0.081-1.363-0.328
	C95.31,56.467,95.766,56.575,96.207,56.55z M94.703,56.146c-0.078-0.046-0.156-0.097-0.233-0.151
	C94.547,56.049,94.625,56.101,94.703,56.146z M94.267,55.846c-0.067-0.051-0.133-0.105-0.199-0.162
	C94.134,55.74,94.2,55.795,94.267,55.846z M98.092,55.533c-0.089,0.098-0.18,0.191-0.273,0.276
	C97.912,55.724,98.003,55.631,98.092,55.533z M97.706,55.91c-0.101,0.085-0.203,0.16-0.308,0.228
	C97.502,56.07,97.605,55.995,97.706,55.91z M97.299,56.203c-0.118,0.07-0.236,0.127-0.356,0.177
	C97.064,56.332,97.182,56.273,97.299,56.203z M96.871,56.412c-0.143,0.053-0.288,0.093-0.435,0.117
	C96.583,56.505,96.729,56.465,96.871,56.412z M99.473,52.992c-0.083,0.248-0.172,0.482-0.266,0.706
	C99.301,53.474,99.39,53.24,99.473,52.992z M99.115,53.898c-0.068,0.151-0.136,0.3-0.208,0.438
	C98.979,54.198,99.047,54.049,99.115,53.898z M98.793,54.536c-0.072,0.126-0.142,0.25-0.219,0.367
	C98.651,54.787,98.721,54.662,98.793,54.536z M98.454,55.075c-0.079,0.112-0.159,0.22-0.243,0.32
	C98.295,55.295,98.375,55.188,98.454,55.075z M99.473,51.449C99.473,51.448,99.473,51.448,99.473,51.449
	C99.473,51.448,99.473,51.449,99.473,51.449L99.473,51.449z M99.488,51.771c0.004,0.038,0.005,0.073,0.008,0.111
	C99.493,51.845,99.492,51.809,99.488,51.771z M99.534,52.406c0.001,0.043,0.003,0.085,0.003,0.127
	C99.537,52.491,99.535,52.449,99.534,52.406z M100.947,48.998c-0.012,0.021-0.026,0.041-0.041,0.062
	C100.92,49.039,100.935,49.019,100.947,48.998z M101.115,48.708c-0.012,0.023-0.027,0.049-0.04,0.074
	C101.088,48.757,101.104,48.731,101.115,48.708z M71.678,57c-0.014-0.003-0.026-0.009-0.04-0.011
	C71.651,56.99,71.664,56.996,71.678,57z M71.961,57.136C71.962,57.136,71.962,57.136,71.961,57.136
	C71.961,57.136,71.961,57.136,71.961,57.136C71.961,57.136,71.961,57.136,71.961,57.136z M72.542,57.459
	c-0.057-0.006-0.11-0.016-0.158-0.036C72.432,57.443,72.485,57.453,72.542,57.459z M72.31,57.391
	c-0.047-0.026-0.091-0.054-0.132-0.086C72.219,57.337,72.263,57.365,72.31,57.391z M72.93,57.401
	c-0.118,0.047-0.215,0.063-0.305,0.065C72.714,57.463,72.812,57.448,72.93,57.401z M74.859,53.83
	c0.001-0.001,0.001-0.002,0.001-0.003c-0.005,0.009-0.01,0.017-0.015,0.024C74.85,53.845,74.854,53.837,74.859,53.83z
	 M81.777,78.268c0.05,0.201,0.108,0.401,0.167,0.601C81.885,78.67,81.827,78.469,81.777,78.268z M82.044,79.208
	c0.063,0.196,0.131,0.391,0.2,0.584C82.176,79.598,82.108,79.404,82.044,79.208z M82.367,80.124
	c0.073,0.192,0.151,0.382,0.229,0.569C82.518,80.505,82.439,80.316,82.367,80.124z M82.734,81.015
	c0.083,0.188,0.168,0.375,0.255,0.561C82.902,81.39,82.816,81.203,82.734,81.015z M83.138,81.886c0.09,0.186,0.184,0.37,0.278,0.554
	C83.322,82.256,83.229,82.072,83.138,81.886z M83.566,82.729c0.102,0.19,0.202,0.379,0.305,0.566
	C83.769,83.108,83.668,82.919,83.566,82.729z M84.012,83.547c0.111,0.198,0.223,0.398,0.335,0.593
	C84.234,83.945,84.123,83.746,84.012,83.547z M84.449,84.316c0.384,0.663,0.771,1.313,1.144,1.951
	C85.22,85.629,84.833,84.979,84.449,84.316z M85.667,86.394c0.11,0.192,0.219,0.381,0.327,0.57
	C85.886,86.775,85.778,86.586,85.667,86.394z M86.135,87.213c0.103,0.183,0.201,0.365,0.298,0.546
	C86.335,87.578,86.238,87.396,86.135,87.213z M86.562,88c0.136,0.258,0.267,0.516,0.389,0.772
	C86.829,88.516,86.698,88.258,86.562,88z M81.572,77.301c0.037,0.211,0.083,0.417,0.128,0.622
	C81.655,77.718,81.609,77.512,81.572,77.301z M81.383,75.278c0.002,0.245,0.021,0.486,0.037,0.727
	C81.404,75.764,81.386,75.523,81.383,75.278z M81.438,76.304c0.021,0.222,0.054,0.439,0.086,0.657
	C81.492,76.744,81.459,76.526,81.438,76.304z M41.605,26.074c-0.111,0.1-0.211,0.212-0.311,0.324
	C41.395,26.287,41.493,26.173,41.605,26.074z M41.155,26.548c-0.127,0.154-0.243,0.319-0.351,0.492
	C40.913,26.868,41.028,26.702,41.155,26.548z M40.779,27.077c-0.114,0.187-0.219,0.384-0.314,0.589
	C40.56,27.461,40.665,27.264,40.779,27.077z M39.773,33.004c0.034,0.415,0.085,0.831,0.146,1.248
	C39.859,33.834,39.807,33.418,39.773,33.004z M39.966,34.563c0.066,0.413,0.14,0.823,0.228,1.228
	C40.106,35.385,40.032,34.975,39.966,34.563z M40.578,37.296c0.112,0.388,0.229,0.771,0.355,1.137
	C40.807,38.067,40.69,37.686,40.578,37.296z M40.197,35.803c0.088,0.406,0.19,0.804,0.297,1.196
	C40.387,36.607,40.285,36.208,40.197,35.803z M87.351,89.716c-0.12-0.231-0.236-0.468-0.35-0.708
	C87.114,89.249,87.231,89.484,87.351,89.716z M87.729,90.394c-0.061-0.103-0.122-0.205-0.181-0.311
	C87.606,90.189,87.668,90.291,87.729,90.394z M86.083,86.997c-2.362-4.026-3.663-6.658-4.7-11.719
	c-0.002-0.199,0.01-0.405,0.017-0.609c0.08-0.092,0.131-0.202,0.298-0.235c0.078-0.018,0.156-0.033,0.234-0.051
	c0.302,0.367,0.609,0.724,1.323,0.455c0.079-0.018,0.157-0.034,0.234-0.049c0.017,0.078,0.033,0.156,0.05,0.234
	c0.799-0.088,1.186,0.459,2.213,0.021c0.078-0.019,0.156-0.034,0.234-0.052c0.999,0.355,3.739-0.183,5.03-0.576
	c6.263-1.912,13.988-9.867,14.111-16.736c0.053-2.867-0.655-5.912-0.62-8.7c0.025-2.108-0.21-6.503,0.519-7.962
	c0.788-1.582,4.738-2.951,5.833-0.257c1.035,2.546-1.281,3.897-0.581,6.502c0.032,0.156,0.065,0.313,0.1,0.47
	c-0.113,3.043-1.948,4.969-3.531,7.057c-0.036,0.03-0.067,0.063-0.104,0.094c0.003,0.009,0.004,0.021,0.008,0.032
	c-0.064,0.084-0.13,0.167-0.193,0.252c0.137,1.755,0.544,3.093,1.129,4.158c0.017,0.084,0.035,0.168,0.054,0.253
	c0.048,0.031,0.1,0.06,0.149,0.089c0.492,0.794,1.089,1.434,1.758,1.96c0.099,1.104-1.592-0.003-1.729,1.103
	c0.183,0.861,0.364,1.723,0.548,2.582c-3.471,6.155-8.44,13.79-12.746,20.861c-0.33,0.543-0.792,1.482-1.324,2.485
	c3.546-5.236,6.684-10.739,9.954-16.155c-3.267,5.418-6.409,10.919-9.955,16.156c0,0,0-0.001,0-0.001
	c-0.889,1.313-1.805,2.61-2.756,3.886c-0.005,0.006-0.011,0.016-0.017,0.021C91.414,92.708,91.205,92.8,91,92.821
	C89.324,92.989,87.073,88.682,86.083,86.997z M109.925,61.687c-0.015-0.053-0.037-0.095-0.055-0.145
	C109.888,61.591,109.911,61.634,109.925,61.687z M109.741,61.205c-0.024-0.049-0.055-0.088-0.081-0.133
	C109.686,61.117,109.716,61.156,109.741,61.205z M109.495,60.816c-0.03-0.038-0.065-0.069-0.096-0.105
	C109.429,60.748,109.464,60.779,109.495,60.816z M109.194,60.502c-0.029-0.027-0.062-0.051-0.092-0.076
	C109.132,60.451,109.165,60.475,109.194,60.502z M108.851,60.236c-0.02-0.011-0.039-0.024-0.058-0.036
	C108.812,60.212,108.832,60.225,108.851,60.236z M106.891,54.749c0.234-0.206,0.461-0.414,0.68-0.628
	C107.352,54.335,107.125,54.543,106.891,54.749z M107.704,53.986c0.191-0.19,0.379-0.383,0.559-0.583
	C108.083,53.603,107.894,53.795,107.704,53.986z M108.429,53.201c0.156-0.183,0.313-0.368,0.456-0.561
	C108.742,52.833,108.585,53.018,108.429,53.201z M109.072,52.358c0.121-0.178,0.245-0.354,0.352-0.54
	C109.317,52.004,109.193,52.18,109.072,52.358z M110.355,48.896c-0.014,0.143-0.047,0.271-0.067,0.409
	C110.308,49.168,110.341,49.039,110.355,48.896z M110.176,49.958c-0.043,0.172-0.105,0.329-0.159,0.493
	C110.072,50.287,110.133,50.129,110.176,49.958z M109.859,50.928c-0.074,0.181-0.167,0.349-0.253,0.521
	C109.692,51.277,109.785,51.108,109.859,50.928z M108.751,65.5c-0.717,1.082-1.417,2.176-2.106,3.276
	C107.336,67.677,108.035,66.582,108.751,65.5z M106.154,69.57c-0.594,0.955-1.186,1.914-1.768,2.879
	C104.969,71.484,105.56,70.525,106.154,69.57z M97.417,84.418c0.134-0.21,0.27-0.42,0.401-0.629
	C97.687,83.999,97.551,84.208,97.417,84.418z M105.656,70.83c-0.17,0.289-0.337,0.578-0.509,0.865
	C105.318,71.408,105.486,71.119,105.656,70.83z M101.793,77.335c-0.167,0.275-0.333,0.551-0.5,0.828
	C101.46,77.886,101.626,77.611,101.793,77.335z"/>
<path fill-rule="evenodd" clip-rule="evenodd" d="M94.115,49.714c-0.1-0.47-0.199-0.939-0.299-1.408
	c-0.235,0.05-0.469,0.099-0.705,0.149C92.774,49.011,93.129,50.258,94.115,49.714z"/>
<path fill-rule="evenodd" clip-rule="evenodd" d="M127.467,79.681c0.115,0.548,0.232,1.095,0.349,1.644
	C128.195,81.21,127.86,79.631,127.467,79.681z"/>
<path fill-rule="evenodd" clip-rule="evenodd" d="M118.664,63.64c-0.267-1.045-1.115-1.192-1.624-1.864
	c0.162,0.997,1.103,0.796,1.338,1.678c-6.611,1.989-0.864,6.176,2.179,9.107c2.294,2.208,4.27,3.915,5.758,5.155
	c-1.183-1.535-3.326-3.067-5.522-5.207C117.947,69.741,111.939,65.463,118.664,63.64z"/>
<path fill-rule="evenodd" clip-rule="evenodd" d="M126.364,77.952c0.291,0.592,0.623,1.118,1.054,1.494
	C127.255,78.656,126.83,78.273,126.364,77.952z"/>
<path d="M125.114,227.399c-55.873,11.862-110.98-23.941-122.843-79.815C-9.593,91.709,26.213,36.603,82.085,24.739
	c55.875-11.863,110.981,23.942,122.844,79.815C216.793,160.428,180.988,215.536,125.114,227.399z M199.386,105.731
	C188.17,52.917,136.08,19.071,83.264,30.285S-3.397,93.589,7.816,146.406c11.214,52.815,63.306,86.661,116.121,75.447
	C176.753,210.641,210.598,158.547,199.386,105.731z"/>
<path d="M73.787,38.327c-1.434,0.272-2.417,0.837-3.145,1.569c1.128-0.429,2.27-0.834,3.422-1.222
	C74.012,38.496,73.941,38.348,73.787,38.327z"/>
<path d="M127.2,33.976c-0.261,0.914-0.555,1.806-0.903,2.665c32.956,8.391,60,34.752,67.543,70.269
	c10.58,49.838-21.242,98.816-71.079,109.396c-49.838,10.582-98.817-21.24-109.399-71.078c-7.915-37.277,7.897-74.071,37.224-94.679
	c-0.784-0.571-1.556-1.171-2.308-1.803c-29.752,21.35-45.769,59.015-37.689,97.072c10.89,51.286,61.473,84.151,112.759,73.264
	c51.287-10.89,84.152-61.476,73.264-112.761C188.87,69.858,161.06,42.711,127.2,33.976z"/>
</svg>
