<?xml version="1.0" encoding="utf-8"?>
<!-- Generator: Adobe Illustrator 15.0.0, SVG Export Plug-In  -->
<!DOCTYPE svg PUBLIC "-//W3C//DTD SVG 1.1//EN" "http://www.w3.org/Graphics/SVG/1.1/DTD/svg11.dtd" [
	<!ENTITY ns_flows "http://ns.adobe.com/Flows/1.0/">
]>
<svg version="1.1"
	 xmlns="http://www.w3.org/2000/svg" xmlns:xlink="http://www.w3.org/1999/xlink" xmlns:a="http://ns.adobe.com/AdobeSVGViewerExtensions/3.0/"
	 x="0px" y="0px" width="371px" height="354px" viewBox="0 0 371 354" enable-background="new 0 0 371 354" xml:space="preserve">
<defs>
</defs>
<path fill-rule="evenodd" clip-rule="evenodd" d="M239.235,15.219c-3.932-8.805-16.229-18.866-26.997-9.749
	c1.04,1.71,5.22,0.279,7.499,0.75c23.563,28.68,30.189,74.297,49.494,107.236c-6.626,0.374-15.494-1.496-17.998,3
	c0.967,5.696,5.231,5.106,5.249,10.499c-16.286,6.46-40.303,5.191-53.243,14.998c1.581,1.918,5.532,1.467,8.999,1.5
	c-2.95,1.094-17.608,1.189-20.997-2.25c3.792,1.42,6.736,0.578,11.248,1.5c-11.452-3.694-24.783-5.504-36.745-6.75
	c-1.77-1.972-3.902-1.427-5.999-0.75c0.601-2.851-3.546-0.954-5.25-1.5c1.09,1.16,2.925,1.574,5.25,1.5
	c1.504,1.527,0.195,1.998-0.75,3c33.987,10.912,71.02,9.954,111.736,6.749c2.553-0.8-2.087-0.233-0.75-2.25
	c17.714,0.595,36.175-2.708,55.493-4.5c0.126,1.626-2.66,0.34-3.75,0.75c2.144,2.442,14.833,0.532,11.999-4.5
	c13.657-4.708,22.895-10.463,30.746-21.748c-5.187,0.305-10.754,1.14-15.748,3c-17.462,6.504-48.132,36.582-62.242,11.999
	c1.683,1.817,3.006,3.993,5.249,5.25c32.233-1.088,44.981-29.406,77.99-24.747c0.776,1.973,0.897,4.602,0.75,7.499
	c-19.119,26.625-56.263,35.226-85.489,51.744c-0.488-4.011,0.984-9.983-0.75-12.748c-3.055,7.194-3.562,16.935-5.999,24.747
	c-1.013-9.925,1.748-18.247,0.75-29.996c-0.495-2.755-4.658-1.841-6-3.75c-0.168,1.418,0.846,1.654,0.75,3
	c-23.946-2.583-58.507,1.578-88.488,3c-19.642,0.932-43.984,0.895-53.994,6.75c0.562,5.136-2.496,10.339,1.5,12.748
	c1.725-1.774,0.269-6.73,0.75-9.749c-0.017-3.273,1.292-0.127,0.75,1.5c-0.221,30.654,6.328,59.85,17.248,81.74
	c5.95,0.049,8.684,3.314,13.498,4.499c-0.987,1.763-2.09,3.409-1.5,6.749c6.632,4.525,11.095,6.894,18.748,9.749
	c1.385-11.863,7.4-19.096,14.998-24.747c2.393-0.643,2.319,1.181,3.75,1.5c3.67-0.829,4.446-4.553,7.499-5.999
	c0.546,2.046-1.49,1.51-1.5,2.999c3.857-1.052,12.889-0.39,11.248-4.499c6.726,1.667,11.881-0.562,17.998-1.5
	c-0.776-6.433-11.123-1.158-13.498-4.499c9.552-6.116,16.81,5.623,26.246,2.25c3.398-1.852,5.854-4.646,8.999-6.75
	c1.001-4.13-0.114-5.716,0-10.498c4.277,6.389-0.376,14.515-5.249,16.498c6.527,6.471,16.724,9.272,19.497,19.497
	c3.192-1.308,0.112-8.888,3-10.499c-0.222-5.222,0.672-9.326,1.5-13.498c0-2.5,0-4.999,0-7.499c0-2.75,0-5.499,0-8.249
	c0-1.25,0-2.5,0-3.749c-0.62-1.778,1.057-3.455,0.75-0.75c0,2.749,0,5.499,0,8.249c1.124,41.618-3.146,77.843-20.248,101.237
	c-2.699,1.528-4.387,3.773-6.749,3.749c9.563,4.019,5.311,23.858,5.25,35.246c-8.499,0-16.998,0-25.497,0
	c1.351-4.899,1.398-11.101,2.25-16.498c-2.983-1.638-4.936,3.313-8.249,3.749c1.705-6.543,5.851-10.646,8.249-16.497
	c-4.371-1.854-11.976-0.49-15.748,0.749c-11.439-1.044-21.738-8.375-32.996-12.748c-9.709-3.771-21.9-3.186-26.247-10.499
	c0.53-5.028-1.991-7.007-3.75-9.748c-0.192-1.558-3.294-0.205-3.75-1.5c-3.583-3.667-6.512-7.986-8.999-12.749
	c-10.672-5.787-19.62-18.985-12.749-33.745c-0.181-1.934-1.291,1.029-3,0c5.635-5.082-1.87-11.921-1.5-18.748
	c-10.347-6.65-25.715-8.28-22.497-28.496c-1.151-1.599-3.332-2.168-5.25-3c-2.6,7.704,1.823,14.599,3,20.998
	c-4.083-4.666-5.703-11.795-5.249-20.998c-5.97,2.544-4.688,9.54-2.25,14.998c5.533,12.391,19.21,29.017,28.497,35.246
	c1.75,0,3.5,0,5.25,0c0.291,3.04-4.673,0.826-6.75,1.5c0.622,12.377,0.93,25.066,1.5,37.495c-1.714,1.906,0.214-6.171-1.5-6.749
	c-32.354,0.857-31.804-31.188-34.496-59.993c-34.303-6.941-63.881-18.608-83.24-40.495c-1.02-4.967-1.02-11.531,0-16.498
	c16.549-27.429,52.776-44.677,95.988-38.245c-0.138,0.638,0.292,0.708,0.75,0.75c0.138-0.638-0.292-0.708-0.75-0.75
	c0.522-3.772-1.272-5.227-0.75-8.999c1.018-0.232,0.622-1.877,0.75-3c-1.211,0.736-1.726,2.001-0.75,3
	c-1.182,0.068-0.587,1.913-2.25,1.5c2.419-22.725,1.507-45.16,5.249-65.242c5.341-28.66,29.051-38.267,56.993-47.244
	c17.691-2.355,39.389,5.059,56.243,1.5c3.088-0.652,5.582-2.548,8.249-3C231.4-1.627,236.42,8.537,239.235,15.219z M141.747,8.47
	c3.064,1.356,6.783-1.308,11.249-2.25c4.147-0.875,11.111,0.464,11.249-3C157.364,2.995,146.957,4.638,141.747,8.47z
	 M96.003,107.458C96.494,107.949,95.688,107.143,96.003,107.458L96.003,107.458z M100.502,121.706
	c-0.882,0.117-2.129-0.129-2.25,0.75C99.135,122.338,100.381,122.584,100.502,121.706z M120,125.455
	c-1.09,0.41-3.876-0.876-3.75,0.75C117.34,125.795,120.126,127.081,120,125.455z M123,127.705c2.046,0.068,1.51-1.249,3,0
	C126.721,125.006,122.629,126.243,123,127.705z M127.499,128.455c3.313-0.197,9.295,5.1,10.499,0
	C133.131,129.757,130.321,124.696,127.499,128.455z M143.247,131.454c0.71-2.71-2.954-1.046-4.5-1.5
	C138.038,132.665,141.701,131,143.247,131.454z M147.747,131.454c-1.09,0.41-3.876-0.876-3.75,0.75
	C144.952,133.226,147.67,133.362,147.747,131.454z M153.746,132.954c-1.318,0.432-4.406-0.906-4.5,0.75
	C150.564,133.272,153.652,134.61,153.746,132.954z M335.223,135.954C335.714,136.445,334.908,135.639,335.223,135.954
	L335.223,135.954z M157.495,136.704C152.692,135.838,155.849,138.994,157.495,136.704L157.495,136.704z M275.98,144.203
	C271.178,143.337,274.334,146.493,275.98,144.203L275.98,144.203z M90.753,181.698c-0.493,1.006-1.603,1.396-3,1.5
	c0.542,2.291-0.767,2.732-0.75,4.499c2.689-1.311,5.313-2.686,6-5.999C92.253,181.698,91.503,181.698,90.753,181.698
	c0.181-1.319,1.291-1.71,3-1.5c-0.734-3.484,0.972-4.527,1.5-6.749c-4.162,0.587-6.022,3.477-5.999,8.249
	C89.754,181.698,90.254,181.698,90.753,181.698z M98.253,181.698c0.5,0,1,0,1.5,0c0.041-0.959,0.961-1.039,0.75-2.25
	c-0.75,0-1.5,0-2.25,0C98.253,180.198,98.253,180.948,98.253,181.698z M100.502,183.948c2.048-1.208-1.098-2.517-1.5-0.75
	C99.755,183.195,99.895,183.806,100.502,183.948z M134.248,195.196c1.696-3.934-0.823-9.501-2.25-12.748
	C132.722,188.393,131.213,192.072,134.248,195.196z M114.001,189.947c1.742,0.508,2.007,2.492,3.749,2.999
	c-0.315-2.458-3.966-8.655-5.999-4.499c-1.49-0.01-0.954-2.046-3-1.5c-2.691,1.402-5.58,7.701-2.25,10.499
	c1.355-1.145,2.297-2.703,5.25-2.25c4.85,7.648,0.798,24.199,10.499,26.997C121.722,209.222,120.544,196.902,114.001,189.947z
	 M254.983,259.688c-0.138-0.638,0.292-0.708,0.75-0.75c-3.509-3.075-10.096-1.803-16.498-1.5c-12.47,0.59-25.823,0.365-35.246,2.25
	c-3.118,2.631-5.229,6.27-8.249,8.999c1.035,5.964,7.985,6.013,12.749,8.249c1.598-3.836-6.154-4.171-6.749-8.249
	c8.097,4.401,14.956,10.04,29.246,8.249c1.044-0.955,0.326-3.674,2.25-3.75c8.833,0.88,13.866-0.602,20.997,0
	c6.59-3.541,4.343-9.679,5.999-15.748C256.943,256.649,257.77,259.975,254.983,259.688z"/>
<path fill-rule="evenodd" clip-rule="evenodd" d="M239.235,15.219c1.816,0.683,1.985,3.014,2.249,5.25
	C240.268,19.186,239.215,17.739,239.235,15.219z"/>
<path fill-rule="evenodd" clip-rule="evenodd" d="M241.484,20.468c1.319,0.181,1.71,1.29,1.5,3
	C241.665,23.287,241.275,22.178,241.484,20.468z"/>
<path fill-rule="evenodd" clip-rule="evenodd" d="M242.984,23.468c1.816,0.683,1.986,3.014,2.25,5.25
	C244.018,27.435,242.964,25.988,242.984,23.468z"/>
<path fill-rule="evenodd" clip-rule="evenodd" d="M245.234,28.717c1.319,0.181,1.709,1.29,1.5,3
	C245.415,31.536,245.024,30.427,245.234,28.717z"/>
<path fill-rule="evenodd" clip-rule="evenodd" d="M246.734,31.717c1.217,1.283,2.27,2.729,2.249,5.25
	C247.167,36.283,246.998,33.953,246.734,31.717z"/>
<path fill-rule="evenodd" clip-rule="evenodd" d="M248.983,36.966c1.319,0.181,1.71,1.29,1.5,3
	C249.164,39.785,248.774,38.676,248.983,36.966z"/>
<path fill-rule="evenodd" clip-rule="evenodd" d="M250.483,39.966c0.585,0.166,0.872,0.628,0.75,1.5
	C250.649,41.3,250.361,40.837,250.483,39.966z"/>
<path fill-rule="evenodd" clip-rule="evenodd" d="M251.233,41.466c0.942,0.307,1.533,0.967,1.5,2.25
	C251.791,43.408,251.201,42.748,251.233,41.466z"/>
<path fill-rule="evenodd" clip-rule="evenodd" d="M252.733,43.715c0.942,0.307,1.532,0.967,1.5,2.25
	C253.291,45.658,252.7,44.998,252.733,43.715z"/>
<path fill-rule="evenodd" clip-rule="evenodd" d="M254.233,45.965c1.481,0.519,1.999,2,2.249,3.75
	C255.002,49.196,254.483,47.714,254.233,45.965z"/>
<path fill-rule="evenodd" clip-rule="evenodd" d="M256.482,49.714c2.102,1.398,2.893,4.107,3.75,6.75
	C258.131,55.065,257.341,52.356,256.482,49.714z"/>
<path fill-rule="evenodd" clip-rule="evenodd" d="M260.232,56.464c0.942,0.307,1.532,0.967,1.5,2.25
	C260.79,58.406,260.199,57.747,260.232,56.464z"/>
<path fill-rule="evenodd" clip-rule="evenodd" d="M262.482,60.963C260.236,60.812,263.199,57.849,262.482,60.963L262.482,60.963z"/>
<path fill-rule="evenodd" clip-rule="evenodd" d="M262.482,60.963c0.584,0.166,0.872,0.628,0.75,1.5
	C262.647,62.297,262.36,61.835,262.482,60.963z"/>
<path fill-rule="evenodd" clip-rule="evenodd" d="M263.232,62.463c0.584,0.166,0.871,0.628,0.75,1.5
	C263.397,63.797,263.11,63.335,263.232,62.463z"/>
<path fill-rule="evenodd" clip-rule="evenodd" d="M263.982,63.963C264.889,63.887,264.443,65.053,263.982,63.963L263.982,63.963z"/>
<path fill-rule="evenodd" clip-rule="evenodd" d="M265.481,66.962C263.236,66.811,266.199,63.848,265.481,66.962L265.481,66.962z"/>
<path fill-rule="evenodd" clip-rule="evenodd" d="M265.481,66.962c0.585,0.166,0.872,0.628,0.75,1.5
	C265.647,68.297,265.359,67.834,265.481,66.962z"/>
<path fill-rule="evenodd" clip-rule="evenodd" d="M266.231,68.462c0.991,0.009,0.686,1.314,1.5,1.5
	C267.409,72.037,265.373,70,266.231,68.462z"/>
<path fill-rule="evenodd" clip-rule="evenodd" d="M267.731,72.212C266.825,72.288,267.271,71.122,267.731,72.212L267.731,72.212z"/>
<path fill-rule="evenodd" clip-rule="evenodd" d="M267.731,72.212c0.942,0.307,1.532,0.967,1.5,2.25
	C268.289,74.154,267.699,73.495,267.731,72.212z"/>
<path fill-rule="evenodd" clip-rule="evenodd" d="M269.981,77.461c-0.991-0.009-0.686-1.314-1.5-1.5
	C268.804,73.886,270.84,75.923,269.981,77.461z"/>
<path fill-rule="evenodd" clip-rule="evenodd" d="M269.981,77.461c1.112,0.638,1.612,1.887,1.5,3.75
	C270.369,80.573,269.869,79.323,269.981,77.461z"/>
<path fill-rule="evenodd" clip-rule="evenodd" d="M271.481,81.21c1.478,1.272,2.012,3.488,2.249,6
	C272.253,85.938,271.719,83.723,271.481,81.21z"/>
<path fill-rule="evenodd" clip-rule="evenodd" d="M273.73,87.21c1.112,0.637,1.612,1.887,1.5,3.75
	C273.591,90.849,273.62,89.07,273.73,87.21z"/>
<path fill-rule="evenodd" clip-rule="evenodd" d="M275.23,91.709c1.112,0.637,1.612,1.887,1.5,3.75
	C275.091,95.349,275.12,93.569,275.23,91.709z"/>
<path fill-rule="evenodd" clip-rule="evenodd" d="M277.48,99.208c-1.238-0.012-0.42-2.08-1.5-2.25
	C276.827,94.549,278.121,97.681,277.48,99.208z"/>
<path fill-rule="evenodd" clip-rule="evenodd" d="M277.48,99.208c1.112,0.637,1.612,1.887,1.5,3.75
	C277.341,102.848,277.37,101.068,277.48,99.208z"/>
<path fill-rule="evenodd" clip-rule="evenodd" d="M281.229,111.957c-1.47-2.03-2.022-4.976-2.249-8.249
	C280.327,105.86,281.372,108.315,281.229,111.957z"/>
<path fill-rule="evenodd" clip-rule="evenodd" d="M281.229,111.957c1.64,0.11,1.61,1.889,1.5,3.749
	C281.617,115.069,281.117,113.819,281.229,111.957z"/>
<path fill-rule="evenodd" clip-rule="evenodd" d="M284.979,123.206c-1.532-1.468-2.236-3.763-2.25-6.75
	C284.447,117.738,284.503,120.682,284.979,123.206z"/>
<path fill-rule="evenodd" clip-rule="evenodd" d="M284.979,123.206c1.112,0.637,1.612,1.887,1.5,3.75
	C284.84,126.845,284.869,125.065,284.979,123.206z"/>
<path fill-rule="evenodd" clip-rule="evenodd" d="M259.482,127.705c5.364-2.101,13.368-0.379,16.498,2.25
	C272.472,130.2,264.916,128.031,259.482,127.705z"/>
<path fill-rule="evenodd" clip-rule="evenodd" d="M332.224,135.954C332.147,135.047,333.313,135.493,332.224,135.954
	L332.224,135.954z"/>
<path fill-rule="evenodd" clip-rule="evenodd" d="M165.744,135.954c0.085,0.915,0.225,1.776,1.5,1.5
	c-0.892,1.562-5.485,0.544-5.25-1.5C162.98,136.916,164.759,136.916,165.744,135.954z"/>
<path fill-rule="evenodd" clip-rule="evenodd" d="M329.974,136.704c0.126-0.874,1.186-0.814,2.25-0.75
	C332.098,136.828,331.038,136.768,329.974,136.704z"/>
<path fill-rule="evenodd" clip-rule="evenodd" d="M329.974,136.704c-0.758,1.242-3.185,0.814-4.499,1.5
	C325.559,136.288,327.985,136.715,329.974,136.704z"/>
<path fill-rule="evenodd" clip-rule="evenodd" d="M168.744,137.454c2.752,1.747,7.906,1.093,11.249,2.25
	C177.391,140.781,169.666,140.549,168.744,137.454z"/>
<path fill-rule="evenodd" clip-rule="evenodd" d="M188.991,141.203C181.342,143.387,179.77,138.78,188.991,141.203L188.991,141.203z
	"/>
<path fill-rule="evenodd" clip-rule="evenodd" d="M265.481,142.703c1.212-0.211,1.291,0.708,2.25,0.75
	C268.029,144.908,264.315,144.548,265.481,142.703z"/>
<path fill-rule="evenodd" clip-rule="evenodd" d="M218.237,144.953c2.518-1.733,8.236-0.263,11.999-0.75c3.999,0,7.999,0,11.998,0
	C235.73,145.948,225.99,144.456,218.237,144.953z"/>
<path fill-rule="evenodd" clip-rule="evenodd" d="M244.484,144.953c0.094-1.656,3.181-0.318,4.499-0.75
	C248.891,145.859,245.803,144.521,244.484,144.953z"/>
<path fill-rule="evenodd" clip-rule="evenodd" d="M250.483,144.953c0.121-0.879,1.367-0.632,2.25-0.75
	C252.612,145.082,251.366,144.835,250.483,144.953z"/>
<path fill-rule="evenodd" clip-rule="evenodd" d="M273.73,148.702c1.908,0.092,2.908,1.091,3,3
	C275.408,151.024,274.408,150.024,273.73,148.702z"/>
<path fill-rule="evenodd" clip-rule="evenodd" d="M276.73,162.201c-9.438-2.863-17.226,2.216-26.247,2.25
	c0.204-2.546-0.58-6.08,0.75-7.499C260.811,157.623,273.874,154.808,276.73,162.201z"/>
<path fill-rule="evenodd" clip-rule="evenodd" d="M209.988,159.201c0.05,7.298-13.621,0.876-14.248,7.5
	c-8.988-5.265-23.93-0.299-34.496,0C173.91,160.618,192.933,160.892,209.988,159.201z"/>
<path fill-rule="evenodd" clip-rule="evenodd" d="M160.495,166.7C158.848,168.991,155.692,165.834,160.495,166.7L160.495,166.7z"/>
<path fill-rule="evenodd" clip-rule="evenodd" d="M274.48,180.948c-2.591-0.409-1.314-4.685-3.749-5.25
	c-3.354,0.147-3.995,3.004-6.749,3.75c-2.256,0.756-1.329-1.67-1.5-3c-8.624,0.428-13.31-4.26-18.748,0.75
	C247.282,164.578,278.233,163.243,274.48,180.948z M254.233,169.7c-0.104,2.921,4.824,2.994,3.749-0.75
	C256.244,168.71,255.104,169.07,254.233,169.7z M257.982,174.949c2.75,0,5.5,0,8.249,0c0.072-3.072-0.103-5.896-2.999-5.999
	C263.661,173.128,259.545,172.762,257.982,174.949z M256.482,174.199C256.975,174.69,256.168,173.884,256.482,174.199
	L256.482,174.199z"/>
<path fill-rule="evenodd" clip-rule="evenodd" d="M284.979,167.45C285.793,171.428,282.701,168.336,284.979,167.45L284.979,167.45z"
	/>
<path fill-rule="evenodd" clip-rule="evenodd" d="M250.483,200.445c-4.54-8.734-14.572-19.887-11.248-31.496
	C239.635,182.798,247.831,188.85,250.483,200.445z"/>
<path fill-rule="evenodd" clip-rule="evenodd" d="M209.988,176.449c-4.951-0.797-8.003-3.495-12.748-4.5
	c-2.139-0.089-2.065,5.866-0.75,6.749c-12.744,0.243-21.533,0.808-26.997,8.999c-3.342-0.012,1.716-2.132,2.25-3
	c2.921-7.327,9.94-10.557,16.498-14.248c4.25,0,8.499,0,12.749,0C203.916,172.522,207.621,173.817,209.988,176.449z
	 M189.741,174.949c1.25,0,2.5,0,3.75,0c-0.141-2.109-1.305-3.195-3.75-3C189.741,172.949,189.741,173.949,189.741,174.949z"/>
<path fill-rule="evenodd" clip-rule="evenodd" d="M215.988,174.199c5.531,9.213-8.226,15.437-11.999,22.497
	C204.605,188.81,217.224,186.437,215.988,174.199z"/>
<path fill-rule="evenodd" clip-rule="evenodd" d="M203.239,177.199C203.391,174.953,206.354,177.916,203.239,177.199
	L203.239,177.199z"/>
<path fill-rule="evenodd" clip-rule="evenodd" d="M209.988,176.449C210.896,176.373,210.45,177.539,209.988,176.449L209.988,176.449
	z"/>
<path fill-rule="evenodd" clip-rule="evenodd" d="M203.239,177.199C203.088,179.444,200.125,176.481,203.239,177.199
	L203.239,177.199z"/>
<path fill-rule="evenodd" clip-rule="evenodd" d="M197.99,178.698C199.637,176.408,202.793,179.564,197.99,178.698L197.99,178.698z"
	/>
<path fill-rule="evenodd" clip-rule="evenodd" d="M197.99,178.698C198.066,179.604,196.9,179.159,197.99,178.698L197.99,178.698z"/>
<path fill-rule="evenodd" clip-rule="evenodd" d="M276.73,183.198c1.558-0.773,0.389,7.584,0.75,10.498
	C275.102,193.649,277.644,186.664,276.73,183.198z"/>
<path fill-rule="evenodd" clip-rule="evenodd" d="M266.981,189.197c3.315,0.006,4.085-5.484,7.499-3
	C272,186.745,269.692,191.37,266.981,189.197z"/>
<path fill-rule="evenodd" clip-rule="evenodd" d="M266.981,189.197c-5.499,0-10.998,0-16.498,0
	c2.816-3.363,12.246-0.896,16.498-0.75C266.981,188.697,266.981,188.947,266.981,189.197z"/>
<path fill-rule="evenodd" clip-rule="evenodd" d="M111.751,188.447c1.29-0.04,1.922,0.577,2.25,1.5
	C112.71,189.987,112.078,189.37,111.751,188.447z"/>
<path fill-rule="evenodd" clip-rule="evenodd" d="M168.744,192.946C168.668,192.04,169.834,192.485,168.744,192.946L168.744,192.946
	z"/>
<path fill-rule="evenodd" clip-rule="evenodd" d="M168.744,192.946C167.857,195.225,164.766,192.134,168.744,192.946
	L168.744,192.946z"/>
<path fill-rule="evenodd" clip-rule="evenodd" d="M269.981,195.946c1.319,0.181,1.709,1.29,1.5,3
	C270.475,198.452,270.084,197.343,269.981,195.946z"/>
<path fill-rule="evenodd" clip-rule="evenodd" d="M250.483,200.445c2.877,4.123,6.39,7.609,7.499,13.499
	C255.34,209.588,251.895,206.034,250.483,200.445z"/>
<path fill-rule="evenodd" clip-rule="evenodd" d="M224.237,212.444c-5.643,2.856-11.208,5.79-11.249,14.248
	c-1.534,3.145,0.034-6.895-1.5-3.749C210.879,217.575,218.308,213.771,224.237,212.444z"/>
<path fill-rule="evenodd" clip-rule="evenodd" d="M99.002,215.444c1.319,0.18,1.709,1.29,1.5,2.999
	C99.183,218.263,98.793,217.153,99.002,215.444z"/>
<path fill-rule="evenodd" clip-rule="evenodd" d="M100.502,218.443c1.198,1.052,1.916,2.584,2.25,4.5
	C101.184,222.262,100.466,220.729,100.502,218.443z"/>
<path fill-rule="evenodd" clip-rule="evenodd" d="M102.752,222.943c1.653,1.847,3.71,3.288,4.5,5.999
	C105.219,227.476,103.161,226.033,102.752,222.943z"/>
<path fill-rule="evenodd" clip-rule="evenodd" d="M214.488,231.941c-1.64-0.11-1.61-1.889-1.5-3.749
	C214.101,228.83,214.601,230.079,214.488,231.941z"/>
<path fill-rule="evenodd" clip-rule="evenodd" d="M107.251,228.942c0.458,0.042,0.888,0.112,0.75,0.75
	C107.544,229.649,107.114,229.58,107.251,228.942z"/>
<path fill-rule="evenodd" clip-rule="evenodd" d="M108.001,229.692c1.098,0.651,2.377,1.122,2.25,2.999
	C109.153,232.04,107.875,231.569,108.001,229.692z"/>
<path fill-rule="evenodd" clip-rule="evenodd" d="M214.488,231.941c1.493,0.757,3.203,1.297,3.749,3
	C216.457,234.473,214.746,233.933,214.488,231.941z"/>
<path fill-rule="evenodd" clip-rule="evenodd" d="M110.251,232.691C111.157,232.615,110.712,233.782,110.251,232.691
	L110.251,232.691z"/>
<path fill-rule="evenodd" clip-rule="evenodd" d="M208.489,236.441C208.413,235.535,209.579,235.98,208.489,236.441L208.489,236.441
	z"/>
<path fill-rule="evenodd" clip-rule="evenodd" d="M254.983,259.688c-0.519,1.481-2.001,1.999-3.75,2.25
	C251.752,260.457,253.234,259.938,254.983,259.688z"/>
<path fill-rule="evenodd" clip-rule="evenodd" d="M251.233,261.938c0.097,1.346-0.744,1.755-2.25,1.499
	C249.291,262.495,249.951,261.905,251.233,261.938z"/>
<path fill-rule="evenodd" clip-rule="evenodd" d="M203.239,263.438c10.2-1.696,21.055,2.44,32.246,2.25
	C228.068,268.239,213.48,264.817,203.239,263.438z"/>
<path fill-rule="evenodd" clip-rule="evenodd" d="M248.983,263.438c-0.574,1.718-5.163,3.277-6.749,1.5
	C245.381,265.334,246.424,263.628,248.983,263.438z"/>
<path fill-rule="evenodd" clip-rule="evenodd" d="M120,287.435c2.333,0.167,1.267,3.732,1.5,6
	C119.767,292.668,119.948,289.986,120,287.435z"/>
<path fill-rule="evenodd" clip-rule="evenodd" d="M121.5,294.184c1.113,1.387,1.437,3.563,1.5,6
	C121.266,299.417,121.448,296.735,121.5,294.184z"/>
<path fill-rule="evenodd" clip-rule="evenodd" d="M125.999,300.934c18.641,15.354,35.276,32.715,49.494,52.493
	c-2.269,1.73-7.735,0.264-11.249,0.75c-19.438-9.06-30.824-26.169-39.745-45.744C125.767,306.699,126.442,304.376,125.999,300.934z"
	/>
<path fill-rule="evenodd" clip-rule="evenodd" d="M122.25,302.433c1.298-2.201,2.729,1.699,2.25,3.75
	C122.978,305.704,124.005,302.677,122.25,302.433z"/>
<path fill-rule="evenodd" clip-rule="evenodd" d="M225.736,327.18C225.66,326.273,226.827,326.719,225.736,327.18L225.736,327.18z"
	/>
<path fill-rule="evenodd" clip-rule="evenodd" d="M225.736,327.18c-2.391,3.358-5.444,6.054-6.749,10.499
	C215.937,334.702,222.236,328.558,225.736,327.18z"/>
<path fill-rule="evenodd" clip-rule="evenodd" d="M224.237,341.428c-0.638,2.613-3.696,2.804-6,3.75
	C219.587,343.277,221.918,342.358,224.237,341.428z"/>
<path fill-rule="evenodd" clip-rule="evenodd" d="M218.237,345.178c-3.394,3.408-14.543,7.42-18.747,3
	C207.206,348.645,212.503,346.692,218.237,345.178z"/>
</svg>
